<?xml version="1.0" encoding="utf-8" standalone="no"?>
<!DOCTYPE svg PUBLIC "-//W3C//DTD SVG 1.1//EN"
  "http://www.w3.org/Graphics/SVG/1.1/DTD/svg11.dtd">
<!-- Created with matplotlib (http://matplotlib.org/) -->
<svg height="432pt" version="1.1" viewBox="0 0 576 432" width="576pt" xmlns="http://www.w3.org/2000/svg" xmlns:xlink="http://www.w3.org/1999/xlink">
 <defs>
  <style type="text/css">
*{stroke-linecap:butt;stroke-linejoin:round;stroke-miterlimit:100000;}
  </style>
 </defs>
 <g id="figure_1">
  <g id="patch_1">
   <path d="M 0 432 
L 576 432 
L 576 0 
L 0 0 
z
" style="fill:#ffffff;"/>
  </g>
  <g id="axes_1">
   <g id="patch_2">
    <path d="M 75.894968 365.22 
L 541.00125 365.22 
L 541.00125 26.955 
L 75.894968 26.955 
z
" style="fill:#ffffff;"/>
   </g>
   <g id="LineCollection_1">
    <path clip-path="url(#p57efb8969c)" d="M 288.520695 322.936875 
L 288.520695 69.238125 
" style="fill:none;stroke:#000000;stroke-dasharray:6.000000,6.000000;stroke-dashoffset:0.0;"/>
    <path clip-path="url(#p57efb8969c)" d="M 274.817516 322.936875 
L 274.817516 69.238125 
" style="fill:none;stroke:#000000;stroke-dasharray:6.000000,6.000000;stroke-dashoffset:0.0;"/>
   </g>
   <g id="line2d_1">
    <path clip-path="url(#p57efb8969c)" d="M 75.894968 331.537978 
L 76.825645 331.830024 
L 77.523654 331.801486 
L 78.221662 331.52299 
L 78.919671 331.002971 
L 79.850349 329.976141 
L 81.013696 328.277367 
L 82.875052 325.046186 
L 85.434416 320.626653 
L 87.063102 318.266353 
L 88.459119 316.652783 
L 89.622467 315.629989 
L 90.785814 314.913801 
L 91.716492 314.566109 
L 92.64717 314.420109 
L 93.577848 314.475511 
L 94.508526 314.730437 
L 95.439204 315.181055 
L 96.602551 316.009332 
L 97.765898 317.111754 
L 99.161915 318.745205 
L 101.25594 321.594423 
L 103.117296 324.056873 
L 104.280644 325.247286 
L 105.211322 325.852254 
L 105.90933 326.049181 
L 106.607338 326.00153 
L 107.305347 325.702888 
L 108.003355 325.162485 
L 108.934033 324.107934 
L 110.09738 322.373521 
L 111.958736 319.083455 
L 114.518101 314.581546 
L 116.146787 312.169335 
L 117.542804 310.512106 
L 118.706151 309.4537 
L 119.869498 308.702705 
L 120.800176 308.327791 
L 121.730854 308.155139 
L 122.661532 308.184451 
L 123.59221 308.413797 
L 124.522888 308.839244 
L 125.686235 309.636324 
L 126.849583 310.707212 
L 128.2456 312.300702 
L 130.572294 315.393385 
L 132.200981 317.450654 
L 133.364328 318.565748 
L 134.295006 319.098702 
L 134.993014 319.235658 
L 135.691023 319.124445 
L 136.389031 318.760535 
L 137.08704 318.155207 
L 138.017718 317.017839 
L 139.181065 315.190243 
L 141.27509 311.340836 
L 143.601785 307.160727 
L 145.230471 304.6936 
L 146.626488 302.997308 
L 147.789836 301.910747 
L 148.953183 301.13502 
L 149.883861 300.742569 
L 150.814539 300.554255 
L 151.745217 300.569653 
L 152.675895 300.786652 
L 153.606573 301.201003 
L 154.76992 301.985124 
L 155.933267 303.042273 
L 157.329284 304.6135 
L 161.982674 310.203115 
L 162.913352 310.779679 
L 163.61136 310.954311 
L 164.309368 310.879012 
L 165.007377 310.543619 
L 165.705385 309.954569 
L 166.636063 308.814416 
L 167.799411 306.941084 
L 169.660766 303.374967 
L 172.4528 298.038374 
L 174.081486 295.428035 
L 175.477503 293.620482 
L 176.640851 292.449153 
L 177.804198 291.595912 
L 178.734876 291.146807 
L 179.665554 290.906787 
L 180.596232 290.875646 
L 181.52691 291.051486 
L 182.457588 291.430202 
L 183.620935 292.177456 
L 184.784282 293.205335 
L 186.180299 294.747428 
L 190.36835 299.716796 
L 191.299028 300.331846 
L 191.997036 300.530817 
L 192.695044 300.467198 
L 193.393053 300.123551 
L 194.091061 299.501041 
L 195.021739 298.273354 
L 196.185087 296.226251 
L 197.813773 292.793407 
L 201.071146 285.830064 
L 202.699832 282.92288 
L 204.095849 280.889981 
L 205.259196 279.550717 
L 206.422544 278.547686 
L 207.353221 277.992337 
L 208.283899 277.658955 
L 209.214577 277.548381 
L 210.145255 277.659997 
L 211.075933 277.991106 
L 212.006611 278.535793 
L 213.169958 279.49961 
L 214.565975 281.015644 
L 216.89267 284.019363 
L 218.288687 285.643286 
L 219.219365 286.384666 
L 219.917373 286.655484 
L 220.615382 286.620693 
L 221.31339 286.243921 
L 222.011398 285.513743 
L 222.709407 284.4461 
L 223.640085 282.569306 
L 224.803432 279.691272 
L 230.3875 264.9631 
L 231.783516 262.138326 
L 233.179533 259.826374 
L 234.342881 258.309821 
L 235.506228 257.177387 
L 236.436906 256.554656 
L 237.367584 256.189479 
L 238.298262 256.087564 
L 239.22894 256.254551 
L 240.159618 256.695003 
L 241.090295 257.410387 
L 242.020973 258.395377 
L 243.184321 259.975287 
L 244.813007 262.643256 
L 246.209024 264.875591 
L 246.907032 265.703397 
L 247.372371 266.051345 
L 247.83771 266.181965 
L 248.303049 266.052594 
L 248.768388 265.629832 
L 249.233727 264.894545 
L 249.931736 263.206753 
L 250.629744 260.881892 
L 251.560422 257.017547 
L 253.189108 249.133741 
L 256.213811 234.392942 
L 258.307837 225.382796 
L 260.169193 218.315639 
L 262.030548 212.053781 
L 263.891904 206.499208 
L 265.985929 200.981802 
L 268.079955 196.128534 
L 270.17398 191.837067 
L 272.500675 187.608776 
L 275.060039 183.445444 
L 280.876776 174.24642 
L 282.272793 171.440618 
L 283.43614 168.533525 
L 284.366818 165.577415 
L 285.297496 161.699471 
L 285.995504 157.81835 
L 286.693513 152.547215 
L 287.158852 147.745648 
L 287.624191 140.740652 
L 287.85686 134.782757 
L 288.08953 124.533868 
L 289.252877 54.306774 
L 289.485546 49.815837 
L 289.718216 49.654067 
L 289.950885 53.822742 
L 290.183555 62.248091 
L 290.648894 90.835936 
L 291.346902 143.474334 
L 291.812241 161.115674 
L 292.51025 175.791741 
L 293.208258 186.112827 
L 293.906267 193.724949 
L 294.604275 199.314494 
L 295.302283 203.389114 
L 296.000292 206.379849 
L 296.93097 209.278697 
L 298.094317 211.959512 
L 302.980376 222.058443 
L 304.376393 225.759024 
L 305.77241 230.044291 
L 307.168427 235.017178 
L 308.564444 240.810339 
L 309.96046 247.609675 
L 311.356477 255.68684 
L 312.519825 263.67785 
L 313.683172 273.138197 
L 314.846519 284.315174 
L 316.707875 302.539266 
L 317.173214 304.781899 
L 317.405884 305.15876 
L 317.638553 305.018476 
L 317.871223 304.398672 
L 318.336561 302.021577 
L 319.267239 295.063947 
L 320.663256 284.816185 
L 321.826604 278.126485 
L 322.757282 273.924417 
L 323.687959 270.569891 
L 324.618637 267.924132 
L 325.549315 265.879539 
L 326.479993 264.354924 
L 327.410671 263.289492 
L 328.108679 262.764018 
L 328.806688 262.456476 
L 329.504696 262.355327 
L 330.202705 262.451629 
L 330.900713 262.73866 
L 331.831391 263.410033 
L 332.762069 264.405475 
L 333.692747 265.723024 
L 334.856094 267.826668 
L 336.019442 270.449542 
L 337.182789 273.610322 
L 338.578806 278.141245 
L 339.974823 283.486767 
L 341.836179 291.69494 
L 343.930204 300.909234 
L 344.628212 303.23681 
L 345.326221 304.790127 
L 345.79156 305.303229 
L 346.256899 305.374806 
L 346.722238 305.023678 
L 347.187577 304.299244 
L 347.885585 302.666669 
L 349.048932 299.108736 
L 351.375627 291.737745 
L 352.771644 288.121741 
L 353.934991 285.719583 
L 355.098339 283.871337 
L 356.029017 282.776833 
L 356.959695 282.009614 
L 357.890372 281.557666 
L 358.82105 281.410977 
L 359.751728 281.561899 
L 360.682406 282.005199 
L 361.613084 282.737949 
L 362.543762 283.759276 
L 363.707109 285.443039 
L 364.870457 287.582404 
L 366.033804 290.179412 
L 367.429821 293.889466 
L 369.058507 298.954634 
L 372.781219 311.002006 
L 373.479227 312.517094 
L 374.177236 313.493452 
L 374.642575 313.803949 
L 375.107914 313.833083 
L 375.573253 313.590345 
L 376.038592 313.099105 
L 376.7366 311.971925 
L 377.667278 309.952632 
L 382.087998 299.434359 
L 383.251345 297.422756 
L 384.414693 295.854673 
L 385.345371 294.921611 
L 386.276048 294.2713 
L 387.206726 293.899737 
L 388.137404 293.803022 
L 389.068082 293.977995 
L 389.99876 294.42251 
L 390.929438 295.135445 
L 391.860116 296.116488 
L 393.023463 297.719808 
L 394.186811 299.740515 
L 395.582828 302.704493 
L 396.978844 306.212895 
L 399.07287 312.200171 
L 400.934225 317.429433 
L 401.864903 319.528654 
L 402.562912 320.682534 
L 403.26092 321.380271 
L 403.726259 321.566791 
L 404.191598 321.526957 
L 404.656937 321.269523 
L 405.354946 320.516789 
L 406.052954 319.40431 
L 407.216301 317.028799 
L 410.939013 308.939535 
L 412.33503 306.617348 
L 413.498377 305.113961 
L 414.661725 304.01755 
L 415.592402 303.434918 
L 416.52308 303.112956 
L 417.453758 303.050067 
L 418.384436 303.244791 
L 419.315114 303.69608 
L 420.245792 304.403301 
L 421.17647 305.365966 
L 422.339817 306.927004 
L 423.503165 308.880242 
L 424.899181 311.720178 
L 426.527868 315.630548 
L 430.483249 325.618993 
L 431.413927 327.19169 
L 432.111935 327.928896 
L 432.577274 328.179118 
L 433.042613 328.228799 
L 433.507952 328.080906 
L 433.973291 327.746486 
L 434.671299 326.935575 
L 435.601977 325.403434 
L 436.997994 322.553783 
L 439.790028 316.779625 
L 441.186045 314.431134 
L 442.349392 312.866814 
L 443.51274 311.684006 
L 444.443417 311.018087 
L 445.374095 310.602502 
L 446.304773 310.436975 
L 447.235451 310.520832 
L 448.166129 310.853401 
L 449.096807 311.434119 
L 450.027485 312.262355 
L 451.190832 313.643824 
L 452.35418 315.404354 
L 453.750197 317.996536 
L 455.378883 321.603119 
L 459.799603 331.940247 
L 460.497611 332.996365 
L 461.19562 333.696525 
L 461.660959 333.941409 
L 462.126298 334.001092 
L 462.591637 333.877171 
L 463.289645 333.367907 
L 463.987653 332.520774 
L 464.918331 330.993406 
L 466.547018 327.738716 
L 468.873712 323.091304 
L 470.269729 320.759988 
L 471.433077 319.186612 
L 472.596424 317.978324 
L 473.527102 317.282456 
L 474.45778 316.829758 
L 475.388458 316.620807 
L 476.319136 316.655483 
L 477.249814 316.933425 
L 478.180491 317.454167 
L 479.111169 318.217005 
L 480.274517 319.508768 
L 481.437864 321.170184 
L 482.833881 323.63026 
L 484.462567 327.065212 
L 488.883287 336.976721 
L 489.813965 338.288913 
L 490.511974 338.873411 
L 490.977313 339.049475 
L 491.442652 339.049684 
L 491.907991 338.877295 
L 492.605999 338.317649 
L 493.304007 337.446244 
L 494.234685 335.920573 
L 495.863372 332.726673 
L 498.190066 328.200323 
L 499.586083 325.93243 
L 500.749431 324.402318 
L 501.912778 323.22854 
L 502.843456 322.554419 
L 503.774134 322.1187 
L 504.704812 321.922334 
L 505.63549 321.965487 
L 506.566168 322.247969 
L 507.496845 322.769342 
L 508.427523 323.528762 
L 509.590871 324.810002 
L 510.754218 326.452741 
L 512.150235 328.876658 
L 513.778921 332.243272 
L 517.966972 341.370225 
L 518.89765 342.699214 
L 519.595658 343.321835 
L 520.293667 343.577084 
L 520.759006 343.536046 
L 521.224345 343.330137 
L 521.922353 342.735651 
L 522.620361 341.847282 
L 523.783709 339.89752 
L 528.902437 330.500207 
L 530.065785 328.999735 
L 531.229132 327.849535 
L 532.15981 327.190165 
L 533.090488 326.765818 
L 534.021166 326.577675 
L 534.951844 326.626079 
L 535.882522 326.910931 
L 536.813199 327.431786 
L 537.743877 328.187664 
L 538.907225 329.45977 
L 540.070572 331.087181 
L 541.00125 332.631174 
L 541.00125 332.631174 
" style="fill:none;stroke:#0000ff;stroke-linecap:square;"/>
   </g>
   <g id="line2d_2">
    <path clip-path="url(#p57efb8969c)" d="M 75.894968 323.832029 
L 83.80573 322.700227 
L 89.157128 321.664963 
L 106.840008 317.867893 
L 117.310134 315.375464 
L 121.730854 314.645689 
L 128.01293 313.625812 
L 130.804964 312.931537 
L 133.596998 312.009296 
L 137.319709 310.514839 
L 141.973099 308.664424 
L 144.532463 307.877022 
L 146.859158 307.374803 
L 149.418522 307.050486 
L 157.561954 306.269837 
L 159.423309 305.729386 
L 161.284665 304.951605 
L 163.37869 303.815687 
L 166.403394 301.867692 
L 170.126105 299.498214 
L 172.220131 298.420877 
L 174.081486 297.70616 
L 175.942842 297.248272 
L 177.804198 297.042443 
L 179.898223 297.060535 
L 185.482291 297.315312 
L 186.878308 297.086867 
L 188.274324 296.619728 
L 189.670341 295.885004 
L 191.066358 294.886294 
L 192.695044 293.437232 
L 195.021739 291.033411 
L 198.744451 287.173648 
L 200.605807 285.567113 
L 202.234493 284.453366 
L 203.63051 283.750148 
L 205.026527 283.294199 
L 206.422544 283.087328 
L 207.81856 283.117237 
L 209.447247 283.410039 
L 211.541272 284.050182 
L 213.867967 284.727878 
L 215.031314 284.859248 
L 215.961992 284.781004 
L 216.89267 284.493774 
L 217.823348 283.966504 
L 218.754026 283.184272 
L 219.917373 281.855771 
L 221.080721 280.183611 
L 222.709407 277.420558 
L 228.526144 267.045011 
L 230.15483 264.751359 
L 231.550847 263.145628 
L 232.714194 262.088081 
L 233.877542 261.301906 
L 235.040889 260.799023 
L 235.971567 260.606604 
L 236.902245 260.603458 
L 237.832923 260.789156 
L 238.99627 261.278871 
L 240.159618 262.029878 
L 241.788304 263.405758 
L 243.882329 265.192837 
L 244.813007 265.666795 
L 245.511016 265.744908 
L 245.976354 265.621981 
L 246.441693 265.335125 
L 247.139702 264.563813 
L 247.83771 263.35958 
L 248.535719 261.728005 
L 249.466397 258.958816 
L 250.629744 254.767901 
L 252.723769 246.198325 
L 255.981142 232.909752 
L 258.307837 224.396281 
L 260.401862 217.553344 
L 262.495887 211.438376 
L 264.589913 205.976178 
L 266.683938 201.087824 
L 269.010633 196.235317 
L 271.337327 191.888782 
L 274.129361 187.171757 
L 280.411437 176.843601 
L 281.807454 173.985981 
L 282.970801 171.110438 
L 283.901479 168.281142 
L 284.832157 164.707234 
L 285.530165 161.274418 
L 286.228174 156.829175 
L 286.926182 150.714723 
L 287.391521 144.954961 
L 287.624191 140.956015 
L 287.85686 134.928001 
L 288.08953 124.602807 
L 289.252877 54.278457 
L 289.485546 49.787048 
L 289.718216 49.625231 
L 289.950885 53.794254 
L 290.183555 62.220637 
L 290.648894 90.81894 
L 291.346902 143.669019 
L 291.812241 161.657337 
L 292.51025 176.978544 
L 293.208258 188.121967 
L 293.906267 196.629273 
L 294.604275 203.031682 
L 295.302283 207.708169 
L 296.000292 211.037375 
L 296.6983 213.391178 
L 297.396309 215.092215 
L 298.326987 216.765585 
L 299.955673 219.056567 
L 301.817029 221.722406 
L 303.213046 224.096934 
L 304.609062 226.909628 
L 306.005079 230.222331 
L 307.401096 234.091989 
L 308.797113 238.586316 
L 310.19313 243.794575 
L 311.589147 249.837616 
L 312.985164 256.877032 
L 314.38118 265.112998 
L 315.777197 274.717228 
L 318.8019 296.545037 
L 319.267239 298.295641 
L 319.499909 298.792459 
L 319.732578 299.021663 
L 319.965248 298.986402 
L 320.197917 298.701319 
L 320.663256 297.484707 
L 321.361265 294.533493 
L 324.618637 278.907143 
L 325.781985 274.915323 
L 326.945332 271.818186 
L 327.87601 269.907088 
L 328.806688 268.442385 
L 329.737366 267.38069 
L 330.668044 266.687178 
L 331.598722 266.334458 
L 332.29673 266.280641 
L 332.994738 266.399565 
L 333.925416 266.81748 
L 334.856094 267.52312 
L 335.786772 268.510068 
L 336.95012 270.133813 
L 338.113467 272.188153 
L 339.276814 274.671908 
L 340.672831 278.213601 
L 342.301518 283.079397 
L 344.395543 290.215044 
L 346.489568 297.257999 
L 347.420246 299.744316 
L 348.118254 301.109682 
L 348.816263 301.942957 
L 349.281602 302.180071 
L 349.746941 302.164572 
L 350.21228 301.912148 
L 350.910288 301.147543 
L 351.840966 299.585903 
L 353.236983 296.636711 
L 355.563678 291.71652 
L 356.959695 289.307449 
L 358.123042 287.723838 
L 359.286389 286.545167 
L 360.217067 285.894464 
L 361.147745 285.500321 
L 362.078423 285.35856 
L 363.009101 285.464813 
L 363.939779 285.814939 
L 364.870457 286.405124 
L 365.801135 287.231726 
L 366.964482 288.591475 
L 368.127829 290.304683 
L 369.523846 292.804383 
L 371.152533 296.265257 
L 373.479227 301.87161 
L 375.573253 306.724408 
L 376.7366 308.811865 
L 377.434608 309.708377 
L 378.132617 310.283903 
L 378.830625 310.518246 
L 379.528634 310.416793 
L 380.226642 310.009389 
L 380.924651 309.344509 
L 381.855328 308.159557 
L 383.484015 305.656403 
L 385.81071 302.121198 
L 387.206726 300.390364 
L 388.370074 299.265545 
L 389.533421 298.457841 
L 390.464099 298.04842 
L 391.394777 297.85227 
L 392.325455 297.869832 
L 393.256133 298.100217 
L 394.186811 298.541518 
L 395.350158 299.385187 
L 396.513505 300.545112 
L 397.676853 302.007601 
L 399.07287 304.130154 
L 400.701556 307.027749 
L 405.354946 315.6354 
L 406.285623 316.802171 
L 406.983632 317.420974 
L 407.68164 317.792996 
L 408.379649 317.909316 
L 409.077657 317.776947 
L 409.775666 317.417688 
L 410.706343 316.644261 
L 411.869691 315.340853 
L 416.75575 309.382228 
L 417.919097 308.402654 
L 419.082445 307.693756 
L 420.245792 307.272831 
L 421.17647 307.149514 
L 422.107148 307.217957 
L 423.037826 307.478118 
L 424.201173 308.07027 
L 425.36452 308.952366 
L 426.527868 310.112232 
L 427.923885 311.842297 
L 429.552571 314.253279 
L 434.903969 322.592362 
L 435.834647 323.492648 
L 436.765325 324.051986 
L 437.463333 324.228159 
L 438.161342 324.195089 
L 438.85935 323.964604 
L 439.790028 323.388745 
L 440.953375 322.337739 
L 442.814731 320.250118 
L 445.374095 317.419987 
L 446.770112 316.187888 
L 447.93346 315.40804 
L 449.096807 314.880549 
L 450.260154 314.62036 
L 451.423502 314.635022 
L 452.586849 314.926548 
L 453.750197 315.492188 
L 454.913544 316.324237 
L 456.076891 317.408877 
L 457.472908 319.011984 
L 459.334264 321.554875 
L 463.522315 327.515086 
L 464.685662 328.70188 
L 465.61634 329.346963 
L 466.547018 329.678524 
L 467.245026 329.71334 
L 467.943035 329.570651 
L 468.873712 329.130646 
L 470.03706 328.256331 
L 471.665746 326.656515 
L 474.923119 323.330758 
L 476.319136 322.210324 
L 477.715153 321.392166 
L 478.8785 320.971741 
L 480.041847 320.803688 
L 481.205195 320.894508 
L 482.368542 321.245128 
L 483.531889 321.851297 
L 484.695237 322.703099 
L 486.091254 324.025006 
L 487.71994 325.917897 
L 490.279304 329.342064 
L 492.37333 332.031562 
L 493.536677 333.23097 
L 494.467355 333.942456 
L 495.398033 334.386155 
L 496.328711 334.539345 
L 497.259389 334.40378 
L 498.190066 334.005312 
L 499.353414 333.207181 
L 500.9821 331.730713 
L 504.704812 328.217584 
L 506.100829 327.230316 
L 507.264176 326.631518 
L 508.427523 326.259952 
L 509.590871 326.128516 
L 510.754218 326.243336 
L 511.917566 326.60483 
L 513.080913 327.207938 
L 514.24426 328.041541 
L 515.640277 329.319308 
L 517.268963 331.12562 
L 522.620361 337.428529 
L 523.783709 338.281168 
L 524.714387 338.68929 
L 525.645065 338.830211 
L 526.575742 338.704834 
L 527.50642 338.33544 
L 528.669768 337.591971 
L 530.298454 336.206012 
L 534.253835 332.680349 
L 535.649852 331.766203 
L 537.045869 331.137312 
L 538.209216 330.856053 
L 539.372564 330.807303 
L 540.535911 330.994166 
L 541.00125 331.128424 
L 541.00125 331.128424 
" style="fill:none;stroke:#008000;stroke-linecap:square;"/>
   </g>
   <g id="line2d_3">
    <path clip-path="url(#p57efb8969c)" d="M 75.894968 308.568134 
L 81.711704 307.717391 
L 86.597763 306.739117 
L 97.533229 304.460341 
L 104.745983 302.989445 
L 110.09738 301.622519 
L 116.146787 300.099952 
L 120.102168 299.355282 
L 129.874286 297.693893 
L 132.66632 296.852358 
L 135.691023 295.69253 
L 142.903777 292.794446 
L 145.463141 292.079505 
L 147.789836 291.655194 
L 150.581869 291.389391 
L 156.398606 290.938169 
L 158.259962 290.534196 
L 160.121318 289.899402 
L 161.982674 289.023194 
L 164.309368 287.645524 
L 171.522122 283.107039 
L 173.383478 282.29913 
L 175.244834 281.746281 
L 177.10619 281.455152 
L 178.967545 281.398204 
L 181.52691 281.572439 
L 184.551613 281.756851 
L 186.180299 281.621355 
L 187.576316 281.271285 
L 188.972333 280.659304 
L 190.36835 279.773285 
L 191.997036 278.424475 
L 194.091061 276.329592 
L 199.20979 271.007759 
L 201.071146 269.480898 
L 202.699832 268.457459 
L 204.095849 267.841737 
L 205.491866 267.478164 
L 206.887883 267.363794 
L 208.283899 267.480408 
L 209.912586 267.85651 
L 214.798645 269.209114 
L 215.729323 269.174707 
L 216.66 268.936463 
L 217.590678 268.459935 
L 218.521356 267.726242 
L 219.452034 266.7355 
L 220.615382 265.166551 
L 222.011398 262.897154 
L 224.338093 258.603983 
L 227.362796 253.088182 
L 229.224152 250.168485 
L 230.620169 248.33379 
L 232.016186 246.850426 
L 233.179533 245.904962 
L 234.342881 245.238638 
L 235.506228 244.86225 
L 236.436906 244.774909 
L 237.367584 244.879143 
L 238.298262 245.172759 
L 239.461609 245.793515 
L 240.857626 246.85949 
L 244.347668 249.832814 
L 245.045677 250.093205 
L 245.743685 250.074256 
L 246.209024 249.868557 
L 246.674363 249.486116 
L 247.372371 248.553366 
L 248.07038 247.177225 
L 249.001058 244.691199 
L 250.164405 240.730954 
L 251.793091 234.222846 
L 256.446481 215.149925 
L 258.540506 207.597961 
L 260.634531 200.828793 
L 262.728557 194.785146 
L 264.822582 189.38867 
L 266.916607 184.559294 
L 269.243302 179.763547 
L 271.569997 175.463085 
L 274.362031 170.782809 
L 280.178767 161.25428 
L 281.574784 158.465251 
L 282.738132 155.687547 
L 283.66881 152.981029 
L 284.599487 149.596335 
L 285.297496 146.377845 
L 285.995504 142.253781 
L 286.693513 136.65673 
L 287.158852 131.487949 
L 287.624191 123.803314 
L 288.08953 110.592775 
L 289.020208 79.397455 
L 289.252877 75.574759 
L 289.485546 73.812368 
L 289.718216 73.988159 
L 289.950885 76.038447 
L 290.183555 80.015696 
L 290.648894 94.064164 
L 292.044911 149.392032 
L 292.742919 163.677099 
L 293.440928 174.104196 
L 294.138936 182.008657 
L 294.836944 187.910428 
L 295.534953 192.202526 
L 296.232961 195.266926 
L 296.93097 197.460116 
L 297.861648 199.532337 
L 299.024995 201.427145 
L 302.515037 206.639715 
L 303.911054 209.253646 
L 305.307071 212.331622 
L 306.703088 215.933926 
L 308.099105 220.124024 
L 309.495121 224.981659 
L 310.891138 230.613668 
L 312.287155 237.164973 
L 313.683172 244.8267 
L 315.079189 253.81816 
L 316.707875 266.073882 
L 318.336561 278.504749 
L 319.03457 282.190416 
L 319.499909 283.458406 
L 319.732578 283.676318 
L 319.965248 283.617571 
L 320.197917 283.298504 
L 320.663256 281.992318 
L 321.361265 278.890062 
L 324.385968 263.804231 
L 325.549315 259.569316 
L 326.712663 256.272176 
L 327.643341 254.226274 
L 328.574018 252.644223 
L 329.504696 251.478878 
L 330.435374 250.692448 
L 331.366052 250.255232 
L 332.064061 250.142474 
L 332.762069 250.205575 
L 333.692747 250.553062 
L 334.623425 251.192007 
L 335.554103 252.11531 
L 336.484781 253.318769 
L 337.648128 255.214227 
L 338.811475 257.543568 
L 340.207492 260.909756 
L 341.603509 264.883221 
L 343.232195 270.20029 
L 346.954907 282.779311 
L 347.885585 284.924355 
L 348.583593 285.938311 
L 349.048932 286.292107 
L 349.514271 286.38329 
L 349.97961 286.222692 
L 350.444949 285.832901 
L 351.142958 284.888226 
L 352.073636 283.148872 
L 354.40033 277.985693 
L 356.029017 274.712312 
L 357.192364 272.795609 
L 358.355711 271.28043 
L 359.286389 270.365027 
L 360.217067 269.712528 
L 361.147745 269.319349 
L 362.078423 269.180993 
L 363.009101 269.292899 
L 363.939779 269.650829 
L 364.870457 270.250956 
L 365.801135 271.089683 
L 366.964482 272.467809 
L 368.127829 274.203201 
L 369.523846 276.734855 
L 371.152533 280.240233 
L 373.479227 285.917645 
L 375.340583 290.327308 
L 376.50393 292.545898 
L 377.434608 293.793636 
L 378.132617 294.348672 
L 378.830625 294.55387 
L 379.528634 294.416856 
L 380.226642 293.970398 
L 380.924651 293.265936 
L 382.087998 291.68576 
L 386.974057 284.390593 
L 388.137404 283.201691 
L 389.300752 282.332324 
L 390.23143 281.876029 
L 391.162107 281.635473 
L 392.092785 281.61124 
L 393.023463 281.802548 
L 393.954141 282.207618 
L 394.884819 282.823728 
L 396.048166 283.884565 
L 397.211514 285.257424 
L 398.607531 287.289906 
L 400.236217 290.119083 
L 402.795581 295.142421 
L 404.656937 298.59547 
L 405.820284 300.294542 
L 406.750962 301.242911 
L 407.448971 301.667168 
L 408.146979 301.830238 
L 408.844988 301.73621 
L 409.542996 301.404969 
L 410.473674 300.651785 
L 411.637021 299.348379 
L 414.196386 295.954165 
L 416.057741 293.715151 
L 417.453758 292.395202 
L 418.617106 291.587614 
L 419.780453 291.068377 
L 420.711131 290.868032 
L 421.641809 290.861659 
L 422.572487 291.049786 
L 423.503165 291.431329 
L 424.666512 292.176033 
L 425.829859 293.209336 
L 427.225876 294.80773 
L 428.621893 296.753595 
L 430.483249 299.751263 
L 433.740622 305.098476 
L 434.903969 306.582857 
L 435.834647 307.440697 
L 436.532655 307.852275 
L 437.230664 308.049952 
L 437.928672 308.032801 
L 438.626681 307.811909 
L 439.557358 307.238855 
L 440.720706 306.177157 
L 442.582062 304.050385 
L 445.141426 301.151378 
L 446.537443 299.883872 
L 447.70079 299.077847 
L 448.864138 298.527803 
L 450.027485 298.248962 
L 450.958163 298.226527 
L 451.888841 298.384025 
L 453.052188 298.832794 
L 454.215535 299.556116 
L 455.378883 300.543017 
L 456.7749 302.048859 
L 458.403586 304.181096 
L 460.96295 307.999029 
L 462.824306 310.653918 
L 463.987653 312.002462 
L 464.918331 312.802316 
L 465.849009 313.29791 
L 466.547018 313.452797 
L 467.245026 313.4207 
L 468.175704 313.10461 
L 469.106382 312.518701 
L 470.269729 311.50252 
L 472.363755 309.28167 
L 474.690449 306.903662 
L 476.086466 305.7664 
L 477.249814 305.053345 
L 478.413161 304.580591 
L 479.576508 304.3629 
L 480.739856 304.407763 
L 481.903203 304.716933 
L 483.06655 305.286973 
L 484.229898 306.108893 
L 485.625915 307.404802 
L 487.254601 309.284108 
L 489.581296 312.410849 
L 491.907991 315.493763 
L 493.071338 316.748219 
L 494.002016 317.507494 
L 494.932694 317.997915 
L 495.863372 318.192388 
L 496.79405 318.088939 
L 497.724727 317.711087 
L 498.888075 316.921763 
L 500.284092 315.660348 
L 504.472142 311.630236 
L 505.868159 310.648108 
L 507.031507 310.061873 
L 508.194854 309.709302 
L 509.358201 309.602437 
L 510.521549 309.746653 
L 511.684896 310.141655 
L 512.848243 310.781603 
L 514.011591 311.654388 
L 515.407608 312.980294 
L 517.036294 314.83968 
L 522.155022 320.964188 
L 523.31837 321.838545 
L 524.249048 322.258242 
L 525.179726 322.403982 
L 526.110404 322.276121 
L 527.041081 321.897387 
L 528.204429 321.134587 
L 529.833115 319.713473 
L 533.555827 316.288741 
L 534.951844 315.313452 
L 536.34786 314.622793 
L 537.511208 314.292025 
L 538.674555 314.197018 
L 539.837903 314.343073 
L 541.00125 314.721401 
L 541.00125 314.721401 
" style="fill:none;stroke:#ff0000;stroke-linecap:square;"/>
   </g>
   <g id="line2d_4">
    <path clip-path="url(#p57efb8969c)" d="M 75.894968 308.551253 
L 81.711704 307.707191 
L 86.365094 306.782571 
L 97.998568 304.356464 
L 104.745983 302.977398 
L 110.09738 301.616114 
L 116.379456 300.040669 
L 120.334837 299.303701 
L 129.641616 297.737515 
L 132.43365 296.921803 
L 135.458353 295.784369 
L 143.369116 292.640984 
L 145.92848 291.967122 
L 148.255175 291.578826 
L 151.047208 291.340655 
L 156.165937 290.952576 
L 158.259962 290.516957 
L 160.121318 289.888096 
L 161.982674 289.01824 
L 164.076699 287.795156 
L 171.987461 282.882314 
L 173.848817 282.130344 
L 175.710173 281.637182 
L 177.571529 281.40211 
L 179.665554 281.39979 
L 185.71496 281.660611 
L 187.110977 281.394792 
L 188.506994 280.879825 
L 189.903011 280.09182 
L 191.299028 279.040591 
L 192.927714 277.539103 
L 195.487078 274.835992 
L 198.744451 271.451645 
L 200.605807 269.836156 
L 202.234493 268.718231 
L 203.63051 268.014164 
L 205.026527 267.559868 
L 206.422544 267.357113 
L 207.81856 267.393513 
L 209.447247 267.696598 
L 211.541272 268.352933 
L 213.867967 269.047923 
L 215.031314 269.184851 
L 215.961992 269.108261 
L 216.89267 268.819522 
L 217.823348 268.28723 
L 218.754026 267.496502 
L 219.917373 266.153201 
L 221.080721 264.463054 
L 222.709407 261.672893 
L 228.526144 251.225481 
L 230.15483 248.922228 
L 231.550847 247.311725 
L 232.714194 246.252578 
L 233.877542 245.467005 
L 235.040889 244.967073 
L 235.971567 244.778873 
L 236.902245 244.781796 
L 237.832923 244.975654 
L 238.99627 245.478937 
L 240.159618 246.247778 
L 241.788304 247.656378 
L 243.882329 249.494871 
L 244.813007 249.989856 
L 245.511016 250.079738 
L 245.976354 249.96166 
L 246.441693 249.676641 
L 247.139702 248.901665 
L 247.83771 247.685801 
L 248.535719 246.03544 
L 249.466397 243.23324 
L 250.629744 238.995641 
L 252.723769 230.349302 
L 255.981142 216.983361 
L 258.307837 208.43839 
L 260.401862 201.576953 
L 262.495887 195.449317 
L 264.589913 189.97825 
L 266.683938 185.083499 
L 269.010633 180.225622 
L 271.337327 175.874467 
L 274.129361 171.151275 
L 280.411437 160.790346 
L 281.807454 157.914758 
L 282.970801 155.015909 
L 283.901479 152.157759 
L 284.832157 148.537056 
L 285.530165 145.045072 
L 286.228174 140.493482 
L 286.926182 134.135705 
L 287.391521 127.922349 
L 287.85686 117.767684 
L 289.252877 75.534718 
L 289.485546 73.837788 
L 289.718216 74.082865 
L 289.950885 76.215602 
L 290.183555 80.291503 
L 290.648894 94.547797 
L 292.044911 149.664429 
L 292.742919 163.87981 
L 293.440928 174.276536 
L 294.138936 182.159386 
L 294.836944 188.041994 
L 295.534953 192.31589 
L 296.232961 195.363314 
L 296.93097 197.541348 
L 297.861648 199.596683 
L 299.024995 201.475399 
L 302.515037 206.661098 
L 303.911054 209.269085 
L 305.307071 212.342481 
L 306.703088 215.941089 
L 308.099105 220.128038 
L 309.495121 224.982781 
L 310.891138 230.611834 
L 312.287155 237.159649 
L 313.683172 244.816484 
L 315.079189 253.799825 
L 316.707875 266.036455 
L 318.336561 278.429211 
L 319.03457 282.09716 
L 319.499909 283.357791 
L 319.732578 283.574141 
L 319.965248 283.515353 
L 320.197917 283.197682 
L 320.663256 281.897738 
L 321.361265 278.809356 
L 324.385968 263.768193 
L 325.549315 259.541199 
L 326.712663 256.249528 
L 327.643341 254.206922 
L 328.574018 252.627548 
L 329.504696 251.46446 
L 330.435374 250.68 
L 331.366052 250.244557 
L 332.064061 250.133038 
L 332.762069 250.197323 
L 333.692747 250.546326 
L 334.623425 251.186738 
L 335.554103 252.111473 
L 336.484781 253.316333 
L 337.648128 255.213488 
L 338.811475 257.544419 
L 340.207492 260.912222 
L 341.603509 264.886639 
L 343.232195 270.203036 
L 346.954907 282.761734 
L 347.885585 284.896128 
L 348.583593 285.901672 
L 349.048932 286.250171 
L 349.514271 286.336629 
L 349.97961 286.172097 
L 350.444949 285.779295 
L 351.142958 284.831902 
L 352.073636 283.091928 
L 354.40033 277.936089 
L 356.029017 274.670406 
L 357.192364 272.759233 
L 358.355711 271.249373 
L 359.286389 270.338045 
L 360.217067 269.689467 
L 361.147745 269.300074 
L 362.078423 269.165391 
L 363.009101 269.280876 
L 363.939779 269.642306 
L 364.870457 270.24586 
L 365.801135 271.087939 
L 366.964482 272.470117 
L 368.127829 274.209334 
L 369.523846 276.745045 
L 371.152533 280.253765 
L 373.479227 285.930403 
L 375.340583 290.330739 
L 376.50393 292.538404 
L 377.434608 293.775151 
L 378.132617 294.321389 
L 378.830625 294.518047 
L 379.528634 294.373403 
L 380.226642 293.920721 
L 381.15732 292.928905 
L 382.320667 291.271211 
L 386.508718 284.904138 
L 387.672065 283.60008 
L 388.835413 282.606938 
L 389.99876 281.942573 
L 390.929438 281.653038 
L 391.860116 281.579803 
L 392.790794 281.722363 
L 393.721472 282.079154 
L 394.65215 282.647677 
L 395.815497 283.650464 
L 396.978844 284.967728 
L 398.374861 286.938917 
L 400.003548 289.709961 
L 402.330242 294.237827 
L 404.424268 298.214741 
L 405.587615 299.997516 
L 406.518293 301.035524 
L 407.216301 301.53545 
L 407.91431 301.7764 
L 408.612318 301.757513 
L 409.310327 301.4942 
L 410.008335 301.015646 
L 410.939013 300.110269 
L 412.33503 298.387343 
L 415.825072 293.915545 
L 417.221089 292.544542 
L 418.384436 291.688594 
L 419.547784 291.118164 
L 420.478461 290.875815 
L 421.409139 290.827069 
L 422.339817 290.97284 
L 423.270495 291.31239 
L 424.433843 292.005655 
L 425.59719 292.989506 
L 426.760537 294.249617 
L 428.156554 296.093279 
L 429.78524 298.615712 
L 434.205961 305.753212 
L 435.369308 307.053705 
L 436.299986 307.725618 
L 436.997994 307.984898 
L 437.696003 308.028493 
L 438.394011 307.864147 
L 439.324689 307.355324 
L 440.255367 306.577869 
L 441.651384 305.083235 
L 445.606765 300.639586 
L 447.002782 299.484703 
L 448.166129 298.787039 
L 449.329476 298.352989 
L 450.492824 298.194231 
L 451.423502 298.269067 
L 452.586849 298.615346 
L 453.750197 299.238764 
L 454.913544 300.130507 
L 456.309561 301.532621 
L 457.705578 303.254395 
L 459.566933 305.917189 
L 462.824306 310.679062 
L 463.987653 312.015072 
L 464.918331 312.801967 
L 465.849009 313.282961 
L 466.547018 313.426587 
L 467.245026 313.383613 
L 468.175704 313.054551 
L 469.106382 312.458293 
L 470.269729 311.433593 
L 472.363755 309.209321 
L 474.690449 306.840628 
L 476.086466 305.712862 
L 477.249814 305.008993 
L 478.413161 304.546134 
L 479.576508 304.338745 
L 480.739856 304.394085 
L 481.903203 304.713703 
L 483.06655 305.293952 
L 484.229898 306.125593 
L 485.625915 307.432045 
L 487.254601 309.321054 
L 489.581296 312.453137 
L 491.907991 315.525155 
L 493.071338 316.766667 
L 494.002016 317.512381 
L 494.932694 317.987317 
L 495.863372 318.165641 
L 496.79405 318.046784 
L 497.724727 317.655534 
L 498.888075 316.853611 
L 500.284092 315.58399 
L 504.472142 311.565553 
L 505.868159 310.594496 
L 507.031507 310.018778 
L 508.194854 309.677441 
L 509.358201 309.582199 
L 510.521549 309.738161 
L 511.684896 310.14478 
L 512.848243 310.795939 
L 514.011591 311.679189 
L 515.407608 313.016037 
L 517.036294 314.884608 
L 521.922353 320.775936 
L 523.0857 321.702752 
L 524.016378 322.171944 
L 524.947056 322.36976 
L 525.877734 322.292213 
L 526.808412 321.958046 
L 527.971759 321.238537 
L 529.367776 320.066647 
L 534.021166 315.868207 
L 535.417183 314.994809 
L 536.58053 314.495449 
L 537.743877 314.223599 
L 538.907225 314.189456 
L 540.070572 314.396742 
L 541.00125 314.727198 
L 541.00125 314.727198 
" style="fill:none;stroke:#00bfbf;stroke-linecap:square;"/>
   </g>
   <g id="line2d_5">
    <path clip-path="url(#p57efb8969c)" d="M 75.894968 308.233614 
L 82.177043 307.33566 
L 87.063102 306.376497 
L 99.161915 303.885114 
L 105.443991 302.566432 
L 111.260728 301.077093 
L 116.612126 299.771124 
L 120.567507 299.044128 
L 129.641616 297.524393 
L 132.43365 296.722883 
L 135.458353 295.601609 
L 143.601785 292.396964 
L 146.161149 291.738405 
L 148.720514 291.334191 
L 151.745217 291.104012 
L 155.933267 290.789476 
L 158.027293 290.393171 
L 159.888648 289.80854 
L 161.750004 288.983871 
L 163.844029 287.802848 
L 167.334072 285.51221 
L 170.358775 283.614668 
L 172.4528 282.552029 
L 174.314156 281.855714 
L 176.175512 281.418652 
L 178.036867 281.23302 
L 180.130893 281.26814 
L 185.482291 281.515143 
L 186.878308 281.292765 
L 188.274324 280.832173 
L 189.670341 280.10347 
L 191.066358 279.109341 
L 192.695044 277.663046 
L 195.021739 275.258102 
L 198.744451 271.387715 
L 200.605807 269.774045 
L 202.234493 268.65397 
L 203.63051 267.945579 
L 205.026527 267.484878 
L 206.422544 267.273793 
L 207.81856 267.300142 
L 209.447247 267.589737 
L 211.541272 268.227603 
L 213.867967 268.905215 
L 215.031314 269.037397 
L 215.961992 268.960079 
L 216.89267 268.673849 
L 217.823348 268.147482 
L 218.754026 267.36596 
L 219.917373 266.037869 
L 221.080721 264.365502 
L 222.709407 261.601205 
L 228.526144 251.217626 
L 230.15483 248.921992 
L 231.550847 247.314893 
L 232.714194 246.256443 
L 233.877542 245.469591 
L 235.040889 244.966184 
L 235.971567 244.773491 
L 236.902245 244.770135 
L 237.832923 244.955755 
L 238.99627 245.44547 
L 240.159618 246.196393 
L 241.788304 247.571719 
L 243.882329 249.355633 
L 244.813007 249.826514 
L 245.511016 249.901434 
L 245.976354 249.775947 
L 246.441693 249.486213 
L 247.139702 248.710128 
L 247.83771 247.500852 
L 248.535719 245.864293 
L 249.466397 243.08912 
L 250.629744 238.892373 
L 252.723769 230.317151 
L 255.981142 217.027652 
L 258.307837 208.516343 
L 260.401862 201.676542 
L 262.495887 195.565606 
L 264.589913 190.10829 
L 266.683938 185.225631 
L 269.010633 180.380303 
L 271.337327 176.041558 
L 274.129361 171.334258 
L 280.411437 161.024394 
L 281.807454 158.167399 
L 282.970801 155.288623 
L 283.901479 152.451202 
L 284.832157 148.857807 
L 285.530165 145.393172 
L 286.228174 140.879041 
L 286.926182 134.579486 
L 287.391521 128.437524 
L 287.85686 118.410523 
L 289.252877 75.982691 
L 289.485546 74.228055 
L 289.718216 74.41224 
L 289.950885 76.471291 
L 290.183555 80.457397 
L 290.648894 94.524803 
L 292.044911 149.983189 
L 292.742919 164.336087 
L 293.440928 174.814656 
L 294.138936 182.745649 
L 294.836944 188.643745 
L 295.534953 192.905111 
L 296.232961 195.921213 
L 296.93097 198.059065 
L 297.861648 200.059289 
L 299.024995 201.877733 
L 302.282368 206.561261 
L 303.678385 209.069235 
L 305.074401 212.036202 
L 306.470418 215.520398 
L 307.866435 219.581131 
L 309.262452 224.292031 
L 310.658469 229.751459 
L 312.054486 236.092558 
L 313.450502 243.490778 
L 314.846519 252.150887 
L 316.242536 262.18601 
L 318.569231 279.340024 
L 319.03457 281.572241 
L 319.499909 282.862792 
L 319.732578 283.112022 
L 319.965248 283.096258 
L 320.197917 282.829324 
L 320.663256 281.642624 
L 321.361265 278.717637 
L 324.618637 263.073389 
L 325.781985 259.065752 
L 326.945332 255.954184 
L 327.87601 254.032561 
L 328.806688 252.55806 
L 329.737366 251.487161 
L 330.668044 250.784859 
L 331.598722 250.423638 
L 332.29673 250.363564 
L 332.994738 250.476266 
L 333.925416 250.885936 
L 334.856094 251.583272 
L 335.786772 252.561813 
L 336.95012 254.174825 
L 338.113467 256.218132 
L 339.276814 258.69054 
L 340.672831 262.218447 
L 342.301518 267.069012 
L 344.395543 274.192062 
L 346.489568 281.246666 
L 347.420246 283.751905 
L 348.118254 285.137199 
L 348.816263 285.993715 
L 349.281602 286.246905 
L 349.746941 286.246951 
L 350.21228 286.008793 
L 350.910288 285.262052 
L 351.608297 284.148338 
L 352.771644 281.797868 
L 355.796347 275.404303 
L 357.192364 273.070058 
L 358.355711 271.554122 
L 359.519059 270.443737 
L 360.449737 269.846908 
L 361.380415 269.505586 
L 362.311092 269.41554 
L 363.24177 269.57239 
L 364.172448 269.972076 
L 365.103126 270.610843 
L 366.033804 271.485061 
L 367.197151 272.902774 
L 368.360499 274.671622 
L 369.756516 277.232986 
L 371.385202 280.752415 
L 374.177236 287.519276 
L 375.805922 291.154482 
L 376.7366 292.794616 
L 377.434608 293.709984 
L 378.132617 294.306573 
L 378.830625 294.562709 
L 379.528634 294.481961 
L 380.226642 294.092707 
L 380.924651 293.442434 
L 381.855328 292.270796 
L 383.484015 289.774869 
L 385.81071 286.226173 
L 387.206726 284.480177 
L 388.370074 283.340762 
L 389.533421 282.51746 
L 390.464099 282.095136 
L 391.394777 281.88584 
L 392.325455 281.890104 
L 393.256133 282.107108 
L 394.186811 282.53499 
L 395.350158 283.361938 
L 396.513505 284.505416 
L 397.676853 285.952116 
L 399.07287 288.057347 
L 400.701556 290.939155 
L 405.354946 299.570277 
L 406.285623 300.760288 
L 407.216301 301.559371 
L 407.91431 301.86899 
L 408.612318 301.923153 
L 409.310327 301.732678 
L 410.008335 301.322477 
L 410.939013 300.49571 
L 412.33503 298.856048 
L 416.290411 293.922979 
L 417.686428 292.63776 
L 418.849775 291.855016 
L 420.013122 291.356523 
L 420.9438 291.169765 
L 421.874478 291.174276 
L 422.805156 291.370568 
L 423.735834 291.757512 
L 424.899181 292.504989 
L 426.062529 293.53648 
L 427.458546 295.126354 
L 428.854563 297.05643 
L 430.715918 300.021972 
L 433.973291 305.295774 
L 435.136638 306.759069 
L 436.067316 307.606944 
L 436.765325 308.016423 
L 437.463333 308.217055 
L 438.161342 308.207723 
L 438.85935 307.999014 
L 439.790028 307.447364 
L 440.953375 306.416891 
L 442.582062 304.611729 
L 445.374095 301.489671 
L 446.770112 300.23708 
L 447.93346 299.437237 
L 449.096807 298.888084 
L 450.260154 298.605238 
L 451.423502 298.5967 
L 452.586849 298.864901 
L 453.750197 299.407399 
L 454.913544 300.217042 
L 456.076891 301.280548 
L 457.472908 302.861204 
L 459.101594 305.047839 
L 463.987653 311.899799 
L 465.151001 312.962959 
L 466.081679 313.488497 
L 466.779687 313.67216 
L 467.477696 313.672637 
L 468.408373 313.40295 
L 469.339051 312.862878 
L 470.502399 311.897839 
L 472.363755 309.98949 
L 474.923119 307.38498 
L 476.319136 306.241311 
L 477.715153 305.395567 
L 478.8785 304.950107 
L 480.041847 304.755947 
L 481.205195 304.820166 
L 482.368542 305.144194 
L 483.531889 305.724319 
L 484.695237 306.551255 
L 486.091254 307.846056 
L 487.71994 309.713749 
L 490.046635 312.804957 
L 492.37333 315.837422 
L 493.536677 317.067565 
L 494.467355 317.81135 
L 495.398033 318.291908 
L 496.328711 318.483561 
L 497.259389 318.384611 
L 498.190066 318.017998 
L 499.353414 317.249672 
L 500.749431 316.018621 
L 505.170151 311.88489 
L 506.566168 310.9618 
L 507.729515 310.424681 
L 508.892862 310.119215 
L 510.05621 310.056172 
L 511.219557 310.239938 
L 512.382904 310.669441 
L 513.546252 311.338 
L 514.942269 312.43697 
L 516.338286 313.822956 
L 518.199641 316.008049 
L 522.155022 320.776051 
L 523.31837 321.800706 
L 524.249048 322.373779 
L 525.179726 322.690865 
L 526.110404 322.738394 
L 527.041081 322.524797 
L 527.971759 322.078925 
L 529.135107 321.263126 
L 530.996463 319.604471 
L 534.021166 316.879191 
L 535.417183 315.892744 
L 536.813199 315.17859 
L 537.976547 314.82032 
L 539.139894 314.691707 
L 540.303242 314.798699 
L 541.00125 314.968527 
L 541.00125 314.968527 
" style="fill:none;stroke:#bf00bf;stroke-linecap:square;"/>
   </g>
   <g id="patch_3">
    <path d="M 75.894968 365.22 
L 541.00125 365.22 
" style="fill:none;stroke:#000000;stroke-linecap:square;stroke-linejoin:miter;"/>
   </g>
   <g id="patch_4">
    <path d="M 75.894968 365.22 
L 75.894968 26.955 
" style="fill:none;stroke:#000000;stroke-linecap:square;stroke-linejoin:miter;"/>
   </g>
   <g id="patch_5">
    <path d="M 541.00125 365.22 
L 541.00125 26.955 
" style="fill:none;stroke:#000000;stroke-linecap:square;stroke-linejoin:miter;"/>
   </g>
   <g id="patch_6">
    <path d="M 75.894968 26.955 
L 541.00125 26.955 
" style="fill:none;stroke:#000000;stroke-linecap:square;stroke-linejoin:miter;"/>
   </g>
   <g id="matplotlib.axis_1">
    <g id="xtick_1">
     <g id="line2d_6">
      <defs>
       <path d="M 0 0 
L 0 -4 
" id="mc42b761c39" style="stroke:#000000;stroke-width:0.5;"/>
      </defs>
      <g>
       <use style="stroke:#000000;stroke-width:0.5;" x="75.8949675293" xlink:href="#mc42b761c39" y="365.22"/>
      </g>
     </g>
     <g id="line2d_7">
      <defs>
       <path d="M 0 0 
L 0 4 
" id="m5ba05514c4" style="stroke:#000000;stroke-width:0.5;"/>
      </defs>
      <g>
       <use style="stroke:#000000;stroke-width:0.5;" x="75.8949675293" xlink:href="#m5ba05514c4" y="26.955"/>
      </g>
     </g>
     <g id="text_1">
      <!-- 4.40 -->
      <defs>
       <path d="M 31.78125 66.40625 
Q 24.171875 66.40625 20.328125 58.90625 
Q 16.5 51.421875 16.5 36.375 
Q 16.5 21.390625 20.328125 13.890625 
Q 24.171875 6.390625 31.78125 6.390625 
Q 39.453125 6.390625 43.28125 13.890625 
Q 47.125 21.390625 47.125 36.375 
Q 47.125 51.421875 43.28125 58.90625 
Q 39.453125 66.40625 31.78125 66.40625 
M 31.78125 74.21875 
Q 44.046875 74.21875 50.515625 64.515625 
Q 56.984375 54.828125 56.984375 36.375 
Q 56.984375 17.96875 50.515625 8.265625 
Q 44.046875 -1.421875 31.78125 -1.421875 
Q 19.53125 -1.421875 13.0625 8.265625 
Q 6.59375 17.96875 6.59375 36.375 
Q 6.59375 54.828125 13.0625 64.515625 
Q 19.53125 74.21875 31.78125 74.21875 
" id="BitstreamVeraSans-Roman-30"/>
       <path d="M 37.796875 64.3125 
L 12.890625 25.390625 
L 37.796875 25.390625 
z
M 35.203125 72.90625 
L 47.609375 72.90625 
L 47.609375 25.390625 
L 58.015625 25.390625 
L 58.015625 17.1875 
L 47.609375 17.1875 
L 47.609375 0 
L 37.796875 0 
L 37.796875 17.1875 
L 4.890625 17.1875 
L 4.890625 26.703125 
z
" id="BitstreamVeraSans-Roman-34"/>
       <path d="M 10.6875 12.40625 
L 21 12.40625 
L 21 0 
L 10.6875 0 
z
" id="BitstreamVeraSans-Roman-2e"/>
      </defs>
      <g transform="translate(58.0824675293 381.3775)scale(0.16 -0.16)">
       <use xlink:href="#BitstreamVeraSans-Roman-34"/>
       <use x="63.623046875" xlink:href="#BitstreamVeraSans-Roman-2e"/>
       <use x="95.41015625" xlink:href="#BitstreamVeraSans-Roman-34"/>
       <use x="159.033203125" xlink:href="#BitstreamVeraSans-Roman-30"/>
      </g>
     </g>
    </g>
    <g id="xtick_2">
     <g id="line2d_8">
      <g>
       <use style="stroke:#000000;stroke-width:0.5;" x="168.916224023" xlink:href="#mc42b761c39" y="365.22"/>
      </g>
     </g>
     <g id="line2d_9">
      <g>
       <use style="stroke:#000000;stroke-width:0.5;" x="168.916224023" xlink:href="#m5ba05514c4" y="26.955"/>
      </g>
     </g>
     <g id="text_2">
      <!-- 4.42 -->
      <defs>
       <path d="M 19.1875 8.296875 
L 53.609375 8.296875 
L 53.609375 0 
L 7.328125 0 
L 7.328125 8.296875 
Q 12.9375 14.109375 22.625 23.890625 
Q 32.328125 33.6875 34.8125 36.53125 
Q 39.546875 41.84375 41.421875 45.53125 
Q 43.3125 49.21875 43.3125 52.78125 
Q 43.3125 58.59375 39.234375 62.25 
Q 35.15625 65.921875 28.609375 65.921875 
Q 23.96875 65.921875 18.8125 64.3125 
Q 13.671875 62.703125 7.8125 59.421875 
L 7.8125 69.390625 
Q 13.765625 71.78125 18.9375 73 
Q 24.125 74.21875 28.421875 74.21875 
Q 39.75 74.21875 46.484375 68.546875 
Q 53.21875 62.890625 53.21875 53.421875 
Q 53.21875 48.921875 51.53125 44.890625 
Q 49.859375 40.875 45.40625 35.40625 
Q 44.1875 33.984375 37.640625 27.21875 
Q 31.109375 20.453125 19.1875 8.296875 
" id="BitstreamVeraSans-Roman-32"/>
      </defs>
      <g transform="translate(151.103724023 381.3775)scale(0.16 -0.16)">
       <use xlink:href="#BitstreamVeraSans-Roman-34"/>
       <use x="63.623046875" xlink:href="#BitstreamVeraSans-Roman-2e"/>
       <use x="95.41015625" xlink:href="#BitstreamVeraSans-Roman-34"/>
       <use x="159.033203125" xlink:href="#BitstreamVeraSans-Roman-32"/>
      </g>
     </g>
    </g>
    <g id="xtick_3">
     <g id="line2d_10">
      <g>
       <use style="stroke:#000000;stroke-width:0.5;" x="261.937480518" xlink:href="#mc42b761c39" y="365.22"/>
      </g>
     </g>
     <g id="line2d_11">
      <g>
       <use style="stroke:#000000;stroke-width:0.5;" x="261.937480518" xlink:href="#m5ba05514c4" y="26.955"/>
      </g>
     </g>
     <g id="text_3">
      <!-- 4.44 -->
      <g transform="translate(244.124980518 381.3775)scale(0.16 -0.16)">
       <use xlink:href="#BitstreamVeraSans-Roman-34"/>
       <use x="63.623046875" xlink:href="#BitstreamVeraSans-Roman-2e"/>
       <use x="95.41015625" xlink:href="#BitstreamVeraSans-Roman-34"/>
       <use x="159.033203125" xlink:href="#BitstreamVeraSans-Roman-34"/>
      </g>
     </g>
    </g>
    <g id="xtick_4">
     <g id="line2d_12">
      <g>
       <use style="stroke:#000000;stroke-width:0.5;" x="354.958737012" xlink:href="#mc42b761c39" y="365.22"/>
      </g>
     </g>
     <g id="line2d_13">
      <g>
       <use style="stroke:#000000;stroke-width:0.5;" x="354.958737012" xlink:href="#m5ba05514c4" y="26.955"/>
      </g>
     </g>
     <g id="text_4">
      <!-- 4.46 -->
      <defs>
       <path d="M 33.015625 40.375 
Q 26.375 40.375 22.484375 35.828125 
Q 18.609375 31.296875 18.609375 23.390625 
Q 18.609375 15.53125 22.484375 10.953125 
Q 26.375 6.390625 33.015625 6.390625 
Q 39.65625 6.390625 43.53125 10.953125 
Q 47.40625 15.53125 47.40625 23.390625 
Q 47.40625 31.296875 43.53125 35.828125 
Q 39.65625 40.375 33.015625 40.375 
M 52.59375 71.296875 
L 52.59375 62.3125 
Q 48.875 64.0625 45.09375 64.984375 
Q 41.3125 65.921875 37.59375 65.921875 
Q 27.828125 65.921875 22.671875 59.328125 
Q 17.53125 52.734375 16.796875 39.40625 
Q 19.671875 43.65625 24.015625 45.921875 
Q 28.375 48.1875 33.59375 48.1875 
Q 44.578125 48.1875 50.953125 41.515625 
Q 57.328125 34.859375 57.328125 23.390625 
Q 57.328125 12.15625 50.6875 5.359375 
Q 44.046875 -1.421875 33.015625 -1.421875 
Q 20.359375 -1.421875 13.671875 8.265625 
Q 6.984375 17.96875 6.984375 36.375 
Q 6.984375 53.65625 15.1875 63.9375 
Q 23.390625 74.21875 37.203125 74.21875 
Q 40.921875 74.21875 44.703125 73.484375 
Q 48.484375 72.75 52.59375 71.296875 
" id="BitstreamVeraSans-Roman-36"/>
      </defs>
      <g transform="translate(337.146237012 381.3775)scale(0.16 -0.16)">
       <use xlink:href="#BitstreamVeraSans-Roman-34"/>
       <use x="63.623046875" xlink:href="#BitstreamVeraSans-Roman-2e"/>
       <use x="95.41015625" xlink:href="#BitstreamVeraSans-Roman-34"/>
       <use x="159.033203125" xlink:href="#BitstreamVeraSans-Roman-36"/>
      </g>
     </g>
    </g>
    <g id="xtick_5">
     <g id="line2d_14">
      <g>
       <use style="stroke:#000000;stroke-width:0.5;" x="447.979993506" xlink:href="#mc42b761c39" y="365.22"/>
      </g>
     </g>
     <g id="line2d_15">
      <g>
       <use style="stroke:#000000;stroke-width:0.5;" x="447.979993506" xlink:href="#m5ba05514c4" y="26.955"/>
      </g>
     </g>
     <g id="text_5">
      <!-- 4.48 -->
      <defs>
       <path d="M 31.78125 34.625 
Q 24.75 34.625 20.71875 30.859375 
Q 16.703125 27.09375 16.703125 20.515625 
Q 16.703125 13.921875 20.71875 10.15625 
Q 24.75 6.390625 31.78125 6.390625 
Q 38.8125 6.390625 42.859375 10.171875 
Q 46.921875 13.96875 46.921875 20.515625 
Q 46.921875 27.09375 42.890625 30.859375 
Q 38.875 34.625 31.78125 34.625 
M 21.921875 38.8125 
Q 15.578125 40.375 12.03125 44.71875 
Q 8.5 49.078125 8.5 55.328125 
Q 8.5 64.0625 14.71875 69.140625 
Q 20.953125 74.21875 31.78125 74.21875 
Q 42.671875 74.21875 48.875 69.140625 
Q 55.078125 64.0625 55.078125 55.328125 
Q 55.078125 49.078125 51.53125 44.71875 
Q 48 40.375 41.703125 38.8125 
Q 48.828125 37.15625 52.796875 32.3125 
Q 56.78125 27.484375 56.78125 20.515625 
Q 56.78125 9.90625 50.3125 4.234375 
Q 43.84375 -1.421875 31.78125 -1.421875 
Q 19.734375 -1.421875 13.25 4.234375 
Q 6.78125 9.90625 6.78125 20.515625 
Q 6.78125 27.484375 10.78125 32.3125 
Q 14.796875 37.15625 21.921875 38.8125 
M 18.3125 54.390625 
Q 18.3125 48.734375 21.84375 45.5625 
Q 25.390625 42.390625 31.78125 42.390625 
Q 38.140625 42.390625 41.71875 45.5625 
Q 45.3125 48.734375 45.3125 54.390625 
Q 45.3125 60.0625 41.71875 63.234375 
Q 38.140625 66.40625 31.78125 66.40625 
Q 25.390625 66.40625 21.84375 63.234375 
Q 18.3125 60.0625 18.3125 54.390625 
" id="BitstreamVeraSans-Roman-38"/>
      </defs>
      <g transform="translate(430.167493506 381.3775)scale(0.16 -0.16)">
       <use xlink:href="#BitstreamVeraSans-Roman-34"/>
       <use x="63.623046875" xlink:href="#BitstreamVeraSans-Roman-2e"/>
       <use x="95.41015625" xlink:href="#BitstreamVeraSans-Roman-34"/>
       <use x="159.033203125" xlink:href="#BitstreamVeraSans-Roman-38"/>
      </g>
     </g>
    </g>
    <g id="xtick_6">
     <g id="line2d_16">
      <g>
       <use style="stroke:#000000;stroke-width:0.5;" x="541.00125" xlink:href="#mc42b761c39" y="365.22"/>
      </g>
     </g>
     <g id="line2d_17">
      <g>
       <use style="stroke:#000000;stroke-width:0.5;" x="541.00125" xlink:href="#m5ba05514c4" y="26.955"/>
      </g>
     </g>
     <g id="text_6">
      <!-- 4.50 -->
      <defs>
       <path d="M 10.796875 72.90625 
L 49.515625 72.90625 
L 49.515625 64.59375 
L 19.828125 64.59375 
L 19.828125 46.734375 
Q 21.96875 47.46875 24.109375 47.828125 
Q 26.265625 48.1875 28.421875 48.1875 
Q 40.625 48.1875 47.75 41.5 
Q 54.890625 34.8125 54.890625 23.390625 
Q 54.890625 11.625 47.5625 5.09375 
Q 40.234375 -1.421875 26.90625 -1.421875 
Q 22.3125 -1.421875 17.546875 -0.640625 
Q 12.796875 0.140625 7.71875 1.703125 
L 7.71875 11.625 
Q 12.109375 9.234375 16.796875 8.0625 
Q 21.484375 6.890625 26.703125 6.890625 
Q 35.15625 6.890625 40.078125 11.328125 
Q 45.015625 15.765625 45.015625 23.390625 
Q 45.015625 31 40.078125 35.4375 
Q 35.15625 39.890625 26.703125 39.890625 
Q 22.75 39.890625 18.8125 39.015625 
Q 14.890625 38.140625 10.796875 36.28125 
z
" id="BitstreamVeraSans-Roman-35"/>
      </defs>
      <g transform="translate(523.18875 381.3775)scale(0.16 -0.16)">
       <use xlink:href="#BitstreamVeraSans-Roman-34"/>
       <use x="63.623046875" xlink:href="#BitstreamVeraSans-Roman-2e"/>
       <use x="95.41015625" xlink:href="#BitstreamVeraSans-Roman-35"/>
       <use x="159.033203125" xlink:href="#BitstreamVeraSans-Roman-30"/>
      </g>
     </g>
    </g>
    <g id="text_7">
     <!-- Qz ($1/\AA$) -->
     <defs>
      <path d="M 31 75.875 
Q 24.46875 64.65625 21.28125 53.65625 
Q 18.109375 42.671875 18.109375 31.390625 
Q 18.109375 20.125 21.3125 9.0625 
Q 24.515625 -2 31 -13.1875 
L 23.1875 -13.1875 
Q 15.875 -1.703125 12.234375 9.375 
Q 8.59375 20.453125 8.59375 31.390625 
Q 8.59375 42.28125 12.203125 53.3125 
Q 15.828125 64.359375 23.1875 75.875 
z
" id="BitstreamVeraSans-Roman-28"/>
      <path d="M 9.28125 0 
L 9.28125 3.515625 
Q 21.78125 3.515625 21.78125 6.6875 
L 21.78125 59.1875 
Q 16.609375 56.6875 8.6875 56.6875 
L 8.6875 60.203125 
Q 20.953125 60.203125 27.203125 66.609375 
L 28.609375 66.609375 
Q 28.953125 66.609375 29.265625 66.328125 
Q 29.59375 66.0625 29.59375 65.71875 
L 29.59375 6.6875 
Q 29.59375 3.515625 42.09375 3.515625 
L 42.09375 0 
z
" id="Cmr10-31"/>
      <path d="M 8.015625 75.875 
L 15.828125 75.875 
Q 23.140625 64.359375 26.78125 53.3125 
Q 30.421875 42.28125 30.421875 31.390625 
Q 30.421875 20.453125 26.78125 9.375 
Q 23.140625 -1.703125 15.828125 -13.1875 
L 8.015625 -13.1875 
Q 14.5 -2 17.703125 9.0625 
Q 20.90625 20.125 20.90625 31.390625 
Q 20.90625 42.671875 17.703125 53.65625 
Q 14.5 64.65625 8.015625 75.875 
" id="BitstreamVeraSans-Roman-29"/>
      <path d="M 5.609375 -23 
Q 5.609375 -22.703125 5.71875 -22.609375 
L 40.484375 73.78125 
Q 40.671875 74.359375 41.15625 74.671875 
Q 41.65625 75 42.28125 75 
Q 43.171875 75 43.71875 74.453125 
Q 44.28125 73.921875 44.28125 73 
L 44.28125 72.609375 
L 9.515625 -23.78125 
Q 8.9375 -25 7.625 -25 
Q 6.78125 -25 6.1875 -24.40625 
Q 5.609375 -23.828125 5.609375 -23 
" id="Cmmi10-3d"/>
      <path id="BitstreamVeraSans-Roman-20"/>
      <path d="M 39.40625 66.21875 
Q 28.65625 66.21875 22.328125 58.203125 
Q 16.015625 50.203125 16.015625 36.375 
Q 16.015625 22.609375 22.328125 14.59375 
Q 28.65625 6.59375 39.40625 6.59375 
Q 50.140625 6.59375 56.421875 14.59375 
Q 62.703125 22.609375 62.703125 36.375 
Q 62.703125 50.203125 56.421875 58.203125 
Q 50.140625 66.21875 39.40625 66.21875 
M 53.21875 1.3125 
L 66.21875 -12.890625 
L 54.296875 -12.890625 
L 43.5 -1.21875 
Q 41.890625 -1.3125 41.03125 -1.359375 
Q 40.1875 -1.421875 39.40625 -1.421875 
Q 24.03125 -1.421875 14.8125 8.859375 
Q 5.609375 19.140625 5.609375 36.375 
Q 5.609375 53.65625 14.8125 63.9375 
Q 24.03125 74.21875 39.40625 74.21875 
Q 54.734375 74.21875 63.90625 63.9375 
Q 73.09375 53.65625 73.09375 36.375 
Q 73.09375 23.6875 67.984375 14.640625 
Q 62.890625 5.609375 53.21875 1.3125 
" id="BitstreamVeraSans-Roman-51"/>
      <path d="M 5.515625 54.6875 
L 48.1875 54.6875 
L 48.1875 46.484375 
L 14.40625 7.171875 
L 48.1875 7.171875 
L 48.1875 0 
L 4.296875 0 
L 4.296875 8.203125 
L 38.09375 47.515625 
L 5.515625 47.515625 
z
" id="BitstreamVeraSans-Roman-7a"/>
      <path d="M 56.40625 0 
L 31.90625 0 
L 31.90625 1.59375 
Q 36.40625 1.796875 38 3 
Q 39.59375 4.203125 39.59375 6.90625 
Q 39.59375 7.703125 39.40625 9.5 
L 37.40625 22.59375 
L 15.40625 22.59375 
L 9.5 11.5 
Q 7.296875 7.40625 7.296875 4.90625 
Q 7.296875 1.90625 13.5 1.59375 
L 13.5 0 
L -5.09375 0 
L -5.09375 1.59375 
Q -1.703125 2.296875 0.4375 4.796875 
Q 2.59375 7.296875 8.296875 17.203125 
L 36.796875 66.796875 
L 39.40625 66.796875 
L 48.59375 11.5 
Q 49.59375 5.296875 51 3.59375 
Q 52.40625 1.90625 56.40625 1.59375 
z
M 36.90625 26.203125 
L 32.40625 52.5 
L 17.5 26.203125 
z
M 44.59375 95.703125 
Q 50.5 89.796875 50.5 85.6875 
Q 50.5 81.59375 47.546875 78.6875 
Q 44.59375 75.796875 40.5 75.796875 
Q 36.203125 75.796875 33.34375 78.6875 
Q 30.5 81.59375 30.5 85.796875 
Q 30.5 89.796875 33.453125 92.75 
Q 36.40625 95.703125 40.40625 95.703125 
Q 44.59375 95.703125 50.5 89.796875 
M 43.296875 79.203125 
Q 47.09375 82.90625 47.09375 85.703125 
Q 47.09375 88.5 45.140625 90.390625 
Q 43.203125 92.296875 40.40625 92.296875 
Q 37.796875 92.296875 35.84375 90.34375 
Q 33.90625 88.40625 33.90625 85.796875 
Q 33.90625 83 35.75 81.09375 
Q 37.59375 79.203125 40.40625 79.203125 
Q 43.296875 79.203125 47.09375 82.90625 
" id="STIXGeneral-Italic-c5"/>
     </defs>
     <g transform="translate(276.208108765 405.065)scale(0.16 -0.16)">
      <use transform="translate(0.0 0.296875)" xlink:href="#BitstreamVeraSans-Roman-51"/>
      <use transform="translate(78.7109375 0.296875)" xlink:href="#BitstreamVeraSans-Roman-7a"/>
      <use transform="translate(131.201171875 0.296875)" xlink:href="#BitstreamVeraSans-Roman-20"/>
      <use transform="translate(162.98828125 0.296875)" xlink:href="#BitstreamVeraSans-Roman-28"/>
      <use transform="translate(202.001953125 0.296875)" xlink:href="#Cmr10-31"/>
      <use transform="translate(252.001953125 0.296875)" xlink:href="#Cmmi10-3d"/>
      <use transform="translate(302.001953125 0.296875)" xlink:href="#STIXGeneral-Italic-c5"/>
      <use transform="translate(363.10194396972656 0.296875)" xlink:href="#BitstreamVeraSans-Roman-29"/>
     </g>
    </g>
   </g>
   <g id="matplotlib.axis_2">
    <g id="ytick_1">
     <g id="line2d_18">
      <defs>
       <path d="M 0 0 
L 4 0 
" id="m1c37a9d54d" style="stroke:#000000;stroke-width:0.5;"/>
      </defs>
      <g>
       <use style="stroke:#000000;stroke-width:0.5;" x="75.8949675293" xlink:href="#m1c37a9d54d" y="365.22"/>
      </g>
     </g>
     <g id="line2d_19">
      <defs>
       <path d="M 0 0 
L -4 0 
" id="m3f98cccb1b" style="stroke:#000000;stroke-width:0.5;"/>
      </defs>
      <g>
       <use style="stroke:#000000;stroke-width:0.5;" x="541.00125" xlink:href="#m3f98cccb1b" y="365.22"/>
      </g>
     </g>
     <g id="text_8">
      <!-- $\mathdefault{10^{-7}}$ -->
      <defs>
       <path d="M 8.203125 72.90625 
L 55.078125 72.90625 
L 55.078125 68.703125 
L 28.609375 0 
L 18.3125 0 
L 43.21875 64.59375 
L 8.203125 64.59375 
z
" id="BitstreamVeraSans-Roman-37"/>
       <path d="M 4.890625 31.390625 
L 31.203125 31.390625 
L 31.203125 23.390625 
L 4.890625 23.390625 
z
" id="BitstreamVeraSans-Roman-2d"/>
       <path d="M 12.40625 8.296875 
L 28.515625 8.296875 
L 28.515625 63.921875 
L 10.984375 60.40625 
L 10.984375 69.390625 
L 28.421875 72.90625 
L 38.28125 72.90625 
L 38.28125 8.296875 
L 54.390625 8.296875 
L 54.390625 0 
L 12.40625 0 
z
" id="BitstreamVeraSans-Roman-31"/>
      </defs>
      <g transform="translate(38.1349675293 369.9725)scale(0.16 -0.16)">
       <use transform="translate(0.0 0.7156250000000028)" xlink:href="#BitstreamVeraSans-Roman-31"/>
       <use transform="translate(63.623046875 0.7156250000000028)" xlink:href="#BitstreamVeraSans-Roman-30"/>
       <use transform="translate(132.75859375 47.965625)scale(0.7)" xlink:href="#BitstreamVeraSans-Roman-2d"/>
       <use transform="translate(158.0173828125 47.965625)scale(0.7)" xlink:href="#BitstreamVeraSans-Roman-37"/>
      </g>
     </g>
    </g>
    <g id="ytick_2">
     <g id="line2d_20">
      <g>
       <use style="stroke:#000000;stroke-width:0.5;" x="75.8949675293" xlink:href="#m1c37a9d54d" y="322.936875"/>
      </g>
     </g>
     <g id="line2d_21">
      <g>
       <use style="stroke:#000000;stroke-width:0.5;" x="541.00125" xlink:href="#m3f98cccb1b" y="322.936875"/>
      </g>
     </g>
     <g id="text_9">
      <!-- $\mathdefault{10^{-6}}$ -->
      <g transform="translate(38.1349675293 327.769375)scale(0.16 -0.16)">
       <use transform="translate(0.0 0.796875)" xlink:href="#BitstreamVeraSans-Roman-31"/>
       <use transform="translate(63.623046875 0.796875)" xlink:href="#BitstreamVeraSans-Roman-30"/>
       <use transform="translate(132.75859375 48.046875)scale(0.7)" xlink:href="#BitstreamVeraSans-Roman-2d"/>
       <use transform="translate(158.0173828125 48.046875)scale(0.7)" xlink:href="#BitstreamVeraSans-Roman-36"/>
      </g>
     </g>
    </g>
    <g id="ytick_3">
     <g id="line2d_22">
      <g>
       <use style="stroke:#000000;stroke-width:0.5;" x="75.8949675293" xlink:href="#m1c37a9d54d" y="280.65375"/>
      </g>
     </g>
     <g id="line2d_23">
      <g>
       <use style="stroke:#000000;stroke-width:0.5;" x="541.00125" xlink:href="#m3f98cccb1b" y="280.65375"/>
      </g>
     </g>
     <g id="text_10">
      <!-- $\mathdefault{10^{-5}}$ -->
      <g transform="translate(38.1349675293 285.40625)scale(0.16 -0.16)">
       <use transform="translate(0.0 0.7156250000000028)" xlink:href="#BitstreamVeraSans-Roman-31"/>
       <use transform="translate(63.623046875 0.7156250000000028)" xlink:href="#BitstreamVeraSans-Roman-30"/>
       <use transform="translate(132.75859375 47.965625)scale(0.7)" xlink:href="#BitstreamVeraSans-Roman-2d"/>
       <use transform="translate(158.0173828125 47.965625)scale(0.7)" xlink:href="#BitstreamVeraSans-Roman-35"/>
      </g>
     </g>
    </g>
    <g id="ytick_4">
     <g id="line2d_24">
      <g>
       <use style="stroke:#000000;stroke-width:0.5;" x="75.8949675293" xlink:href="#m1c37a9d54d" y="238.370625"/>
      </g>
     </g>
     <g id="line2d_25">
      <g>
       <use style="stroke:#000000;stroke-width:0.5;" x="541.00125" xlink:href="#m3f98cccb1b" y="238.370625"/>
      </g>
     </g>
     <g id="text_11">
      <!-- $\mathdefault{10^{-4}}$ -->
      <g transform="translate(38.1349675293 243.123125)scale(0.16 -0.16)">
       <use transform="translate(0.0 0.7156250000000028)" xlink:href="#BitstreamVeraSans-Roman-31"/>
       <use transform="translate(63.623046875 0.7156250000000028)" xlink:href="#BitstreamVeraSans-Roman-30"/>
       <use transform="translate(132.75859375 47.965625)scale(0.7)" xlink:href="#BitstreamVeraSans-Roman-2d"/>
       <use transform="translate(158.0173828125 47.965625)scale(0.7)" xlink:href="#BitstreamVeraSans-Roman-34"/>
      </g>
     </g>
    </g>
    <g id="ytick_5">
     <g id="line2d_26">
      <g>
       <use style="stroke:#000000;stroke-width:0.5;" x="75.8949675293" xlink:href="#m1c37a9d54d" y="196.0875"/>
      </g>
     </g>
     <g id="line2d_27">
      <g>
       <use style="stroke:#000000;stroke-width:0.5;" x="541.00125" xlink:href="#m3f98cccb1b" y="196.0875"/>
      </g>
     </g>
     <g id="text_12">
      <!-- $\mathdefault{10^{-3}}$ -->
      <defs>
       <path d="M 40.578125 39.3125 
Q 47.65625 37.796875 51.625 33 
Q 55.609375 28.21875 55.609375 21.1875 
Q 55.609375 10.40625 48.1875 4.484375 
Q 40.765625 -1.421875 27.09375 -1.421875 
Q 22.515625 -1.421875 17.65625 -0.515625 
Q 12.796875 0.390625 7.625 2.203125 
L 7.625 11.71875 
Q 11.71875 9.328125 16.59375 8.109375 
Q 21.484375 6.890625 26.8125 6.890625 
Q 36.078125 6.890625 40.9375 10.546875 
Q 45.796875 14.203125 45.796875 21.1875 
Q 45.796875 27.640625 41.28125 31.265625 
Q 36.765625 34.90625 28.71875 34.90625 
L 20.21875 34.90625 
L 20.21875 43.015625 
L 29.109375 43.015625 
Q 36.375 43.015625 40.234375 45.921875 
Q 44.09375 48.828125 44.09375 54.296875 
Q 44.09375 59.90625 40.109375 62.90625 
Q 36.140625 65.921875 28.71875 65.921875 
Q 24.65625 65.921875 20.015625 65.03125 
Q 15.375 64.15625 9.8125 62.3125 
L 9.8125 71.09375 
Q 15.4375 72.65625 20.34375 73.4375 
Q 25.25 74.21875 29.59375 74.21875 
Q 40.828125 74.21875 47.359375 69.109375 
Q 53.90625 64.015625 53.90625 55.328125 
Q 53.90625 49.265625 50.4375 45.09375 
Q 46.96875 40.921875 40.578125 39.3125 
" id="BitstreamVeraSans-Roman-33"/>
      </defs>
      <g transform="translate(38.1349675293 200.92)scale(0.16 -0.16)">
       <use transform="translate(0.0 0.796875)" xlink:href="#BitstreamVeraSans-Roman-31"/>
       <use transform="translate(63.623046875 0.796875)" xlink:href="#BitstreamVeraSans-Roman-30"/>
       <use transform="translate(132.75859375 48.046875)scale(0.7)" xlink:href="#BitstreamVeraSans-Roman-2d"/>
       <use transform="translate(158.0173828125 48.046875)scale(0.7)" xlink:href="#BitstreamVeraSans-Roman-33"/>
      </g>
     </g>
    </g>
    <g id="ytick_6">
     <g id="line2d_28">
      <g>
       <use style="stroke:#000000;stroke-width:0.5;" x="75.8949675293" xlink:href="#m1c37a9d54d" y="153.804375"/>
      </g>
     </g>
     <g id="line2d_29">
      <g>
       <use style="stroke:#000000;stroke-width:0.5;" x="541.00125" xlink:href="#m3f98cccb1b" y="153.804375"/>
      </g>
     </g>
     <g id="text_13">
      <!-- $\mathdefault{10^{-2}}$ -->
      <g transform="translate(38.1349675293 158.636875)scale(0.16 -0.16)">
       <use transform="translate(0.0 0.796875)" xlink:href="#BitstreamVeraSans-Roman-31"/>
       <use transform="translate(63.623046875 0.796875)" xlink:href="#BitstreamVeraSans-Roman-30"/>
       <use transform="translate(132.75859375 48.046875)scale(0.7)" xlink:href="#BitstreamVeraSans-Roman-2d"/>
       <use transform="translate(158.0173828125 48.046875)scale(0.7)" xlink:href="#BitstreamVeraSans-Roman-32"/>
      </g>
     </g>
    </g>
    <g id="ytick_7">
     <g id="line2d_30">
      <g>
       <use style="stroke:#000000;stroke-width:0.5;" x="75.8949675293" xlink:href="#m1c37a9d54d" y="111.52125"/>
      </g>
     </g>
     <g id="line2d_31">
      <g>
       <use style="stroke:#000000;stroke-width:0.5;" x="541.00125" xlink:href="#m3f98cccb1b" y="111.52125"/>
      </g>
     </g>
     <g id="text_14">
      <!-- $\mathdefault{10^{-1}}$ -->
      <g transform="translate(38.1349675293 116.27375)scale(0.16 -0.16)">
       <use transform="translate(0.0 0.7156250000000028)" xlink:href="#BitstreamVeraSans-Roman-31"/>
       <use transform="translate(63.623046875 0.7156250000000028)" xlink:href="#BitstreamVeraSans-Roman-30"/>
       <use transform="translate(132.75859375 47.965625)scale(0.7)" xlink:href="#BitstreamVeraSans-Roman-2d"/>
       <use transform="translate(158.0173828125 47.965625)scale(0.7)" xlink:href="#BitstreamVeraSans-Roman-31"/>
      </g>
     </g>
    </g>
    <g id="ytick_8">
     <g id="line2d_32">
      <g>
       <use style="stroke:#000000;stroke-width:0.5;" x="75.8949675293" xlink:href="#m1c37a9d54d" y="69.238125"/>
      </g>
     </g>
     <g id="line2d_33">
      <g>
       <use style="stroke:#000000;stroke-width:0.5;" x="541.00125" xlink:href="#m3f98cccb1b" y="69.238125"/>
      </g>
     </g>
     <g id="text_15">
      <!-- $\mathdefault{10^{0}}$ -->
      <g transform="translate(42.1349675293 74.070625)scale(0.16 -0.16)">
       <use transform="translate(0.0 0.796875)" xlink:href="#BitstreamVeraSans-Roman-31"/>
       <use transform="translate(63.623046875 0.796875)" xlink:href="#BitstreamVeraSans-Roman-30"/>
       <use transform="translate(132.75859375 48.046875)scale(0.7)" xlink:href="#BitstreamVeraSans-Roman-30"/>
      </g>
     </g>
    </g>
    <g id="ytick_9">
     <g id="line2d_34">
      <g>
       <use style="stroke:#000000;stroke-width:0.5;" x="75.8949675293" xlink:href="#m1c37a9d54d" y="26.955"/>
      </g>
     </g>
     <g id="line2d_35">
      <g>
       <use style="stroke:#000000;stroke-width:0.5;" x="541.00125" xlink:href="#m3f98cccb1b" y="26.955"/>
      </g>
     </g>
     <g id="text_16">
      <!-- $\mathdefault{10^{1}}$ -->
      <g transform="translate(42.1349675293 31.7075)scale(0.16 -0.16)">
       <use transform="translate(0.0 0.7156250000000028)" xlink:href="#BitstreamVeraSans-Roman-31"/>
       <use transform="translate(63.623046875 0.7156250000000028)" xlink:href="#BitstreamVeraSans-Roman-30"/>
       <use transform="translate(132.75859375 47.965625)scale(0.7)" xlink:href="#BitstreamVeraSans-Roman-31"/>
      </g>
     </g>
    </g>
    <g id="ytick_10">
     <g id="line2d_36">
      <defs>
       <path d="M 0 0 
L 2 0 
" id="m64555fa8d3" style="stroke:#000000;stroke-width:0.5;"/>
      </defs>
      <g>
       <use style="stroke:#000000;stroke-width:0.5;" x="75.8949675293" xlink:href="#m64555fa8d3" y="352.491511065"/>
      </g>
     </g>
     <g id="line2d_37">
      <defs>
       <path d="M 0 0 
L -2 0 
" id="m5070b12571" style="stroke:#000000;stroke-width:0.5;"/>
      </defs>
      <g>
       <use style="stroke:#000000;stroke-width:0.5;" x="541.00125" xlink:href="#m5070b12571" y="352.491511065"/>
      </g>
     </g>
    </g>
    <g id="ytick_11">
     <g id="line2d_38">
      <g>
       <use style="stroke:#000000;stroke-width:0.5;" x="75.8949675293" xlink:href="#m64555fa8d3" y="339.763022129"/>
      </g>
     </g>
     <g id="line2d_39">
      <g>
       <use style="stroke:#000000;stroke-width:0.5;" x="541.00125" xlink:href="#m5070b12571" y="339.763022129"/>
      </g>
     </g>
    </g>
    <g id="ytick_12">
     <g id="line2d_40">
      <g>
       <use style="stroke:#000000;stroke-width:0.5;" x="75.8949675293" xlink:href="#m64555fa8d3" y="332.317333411"/>
      </g>
     </g>
     <g id="line2d_41">
      <g>
       <use style="stroke:#000000;stroke-width:0.5;" x="541.00125" xlink:href="#m5070b12571" y="332.317333411"/>
      </g>
     </g>
    </g>
    <g id="ytick_13">
     <g id="line2d_42">
      <g>
       <use style="stroke:#000000;stroke-width:0.5;" x="75.8949675293" xlink:href="#m64555fa8d3" y="327.034533194"/>
      </g>
     </g>
     <g id="line2d_43">
      <g>
       <use style="stroke:#000000;stroke-width:0.5;" x="541.00125" xlink:href="#m5070b12571" y="327.034533194"/>
      </g>
     </g>
    </g>
    <g id="ytick_14">
     <g id="line2d_44">
      <g>
       <use style="stroke:#000000;stroke-width:0.5;" x="75.8949675293" xlink:href="#m64555fa8d3" y="310.208386065"/>
      </g>
     </g>
     <g id="line2d_45">
      <g>
       <use style="stroke:#000000;stroke-width:0.5;" x="541.00125" xlink:href="#m5070b12571" y="310.208386065"/>
      </g>
     </g>
    </g>
    <g id="ytick_15">
     <g id="line2d_46">
      <g>
       <use style="stroke:#000000;stroke-width:0.5;" x="75.8949675293" xlink:href="#m64555fa8d3" y="297.479897129"/>
      </g>
     </g>
     <g id="line2d_47">
      <g>
       <use style="stroke:#000000;stroke-width:0.5;" x="541.00125" xlink:href="#m5070b12571" y="297.479897129"/>
      </g>
     </g>
    </g>
    <g id="ytick_16">
     <g id="line2d_48">
      <g>
       <use style="stroke:#000000;stroke-width:0.5;" x="75.8949675293" xlink:href="#m64555fa8d3" y="290.034208411"/>
      </g>
     </g>
     <g id="line2d_49">
      <g>
       <use style="stroke:#000000;stroke-width:0.5;" x="541.00125" xlink:href="#m5070b12571" y="290.034208411"/>
      </g>
     </g>
    </g>
    <g id="ytick_17">
     <g id="line2d_50">
      <g>
       <use style="stroke:#000000;stroke-width:0.5;" x="75.8949675293" xlink:href="#m64555fa8d3" y="284.751408194"/>
      </g>
     </g>
     <g id="line2d_51">
      <g>
       <use style="stroke:#000000;stroke-width:0.5;" x="541.00125" xlink:href="#m5070b12571" y="284.751408194"/>
      </g>
     </g>
    </g>
    <g id="ytick_18">
     <g id="line2d_52">
      <g>
       <use style="stroke:#000000;stroke-width:0.5;" x="75.8949675293" xlink:href="#m64555fa8d3" y="267.925261065"/>
      </g>
     </g>
     <g id="line2d_53">
      <g>
       <use style="stroke:#000000;stroke-width:0.5;" x="541.00125" xlink:href="#m5070b12571" y="267.925261065"/>
      </g>
     </g>
    </g>
    <g id="ytick_19">
     <g id="line2d_54">
      <g>
       <use style="stroke:#000000;stroke-width:0.5;" x="75.8949675293" xlink:href="#m64555fa8d3" y="255.196772129"/>
      </g>
     </g>
     <g id="line2d_55">
      <g>
       <use style="stroke:#000000;stroke-width:0.5;" x="541.00125" xlink:href="#m5070b12571" y="255.196772129"/>
      </g>
     </g>
    </g>
    <g id="ytick_20">
     <g id="line2d_56">
      <g>
       <use style="stroke:#000000;stroke-width:0.5;" x="75.8949675293" xlink:href="#m64555fa8d3" y="247.751083411"/>
      </g>
     </g>
     <g id="line2d_57">
      <g>
       <use style="stroke:#000000;stroke-width:0.5;" x="541.00125" xlink:href="#m5070b12571" y="247.751083411"/>
      </g>
     </g>
    </g>
    <g id="ytick_21">
     <g id="line2d_58">
      <g>
       <use style="stroke:#000000;stroke-width:0.5;" x="75.8949675293" xlink:href="#m64555fa8d3" y="242.468283194"/>
      </g>
     </g>
     <g id="line2d_59">
      <g>
       <use style="stroke:#000000;stroke-width:0.5;" x="541.00125" xlink:href="#m5070b12571" y="242.468283194"/>
      </g>
     </g>
    </g>
    <g id="ytick_22">
     <g id="line2d_60">
      <g>
       <use style="stroke:#000000;stroke-width:0.5;" x="75.8949675293" xlink:href="#m64555fa8d3" y="225.642136065"/>
      </g>
     </g>
     <g id="line2d_61">
      <g>
       <use style="stroke:#000000;stroke-width:0.5;" x="541.00125" xlink:href="#m5070b12571" y="225.642136065"/>
      </g>
     </g>
    </g>
    <g id="ytick_23">
     <g id="line2d_62">
      <g>
       <use style="stroke:#000000;stroke-width:0.5;" x="75.8949675293" xlink:href="#m64555fa8d3" y="212.913647129"/>
      </g>
     </g>
     <g id="line2d_63">
      <g>
       <use style="stroke:#000000;stroke-width:0.5;" x="541.00125" xlink:href="#m5070b12571" y="212.913647129"/>
      </g>
     </g>
    </g>
    <g id="ytick_24">
     <g id="line2d_64">
      <g>
       <use style="stroke:#000000;stroke-width:0.5;" x="75.8949675293" xlink:href="#m64555fa8d3" y="205.467958411"/>
      </g>
     </g>
     <g id="line2d_65">
      <g>
       <use style="stroke:#000000;stroke-width:0.5;" x="541.00125" xlink:href="#m5070b12571" y="205.467958411"/>
      </g>
     </g>
    </g>
    <g id="ytick_25">
     <g id="line2d_66">
      <g>
       <use style="stroke:#000000;stroke-width:0.5;" x="75.8949675293" xlink:href="#m64555fa8d3" y="200.185158194"/>
      </g>
     </g>
     <g id="line2d_67">
      <g>
       <use style="stroke:#000000;stroke-width:0.5;" x="541.00125" xlink:href="#m5070b12571" y="200.185158194"/>
      </g>
     </g>
    </g>
    <g id="ytick_26">
     <g id="line2d_68">
      <g>
       <use style="stroke:#000000;stroke-width:0.5;" x="75.8949675293" xlink:href="#m64555fa8d3" y="183.359011065"/>
      </g>
     </g>
     <g id="line2d_69">
      <g>
       <use style="stroke:#000000;stroke-width:0.5;" x="541.00125" xlink:href="#m5070b12571" y="183.359011065"/>
      </g>
     </g>
    </g>
    <g id="ytick_27">
     <g id="line2d_70">
      <g>
       <use style="stroke:#000000;stroke-width:0.5;" x="75.8949675293" xlink:href="#m64555fa8d3" y="170.630522129"/>
      </g>
     </g>
     <g id="line2d_71">
      <g>
       <use style="stroke:#000000;stroke-width:0.5;" x="541.00125" xlink:href="#m5070b12571" y="170.630522129"/>
      </g>
     </g>
    </g>
    <g id="ytick_28">
     <g id="line2d_72">
      <g>
       <use style="stroke:#000000;stroke-width:0.5;" x="75.8949675293" xlink:href="#m64555fa8d3" y="163.184833411"/>
      </g>
     </g>
     <g id="line2d_73">
      <g>
       <use style="stroke:#000000;stroke-width:0.5;" x="541.00125" xlink:href="#m5070b12571" y="163.184833411"/>
      </g>
     </g>
    </g>
    <g id="ytick_29">
     <g id="line2d_74">
      <g>
       <use style="stroke:#000000;stroke-width:0.5;" x="75.8949675293" xlink:href="#m64555fa8d3" y="157.902033194"/>
      </g>
     </g>
     <g id="line2d_75">
      <g>
       <use style="stroke:#000000;stroke-width:0.5;" x="541.00125" xlink:href="#m5070b12571" y="157.902033194"/>
      </g>
     </g>
    </g>
    <g id="ytick_30">
     <g id="line2d_76">
      <g>
       <use style="stroke:#000000;stroke-width:0.5;" x="75.8949675293" xlink:href="#m64555fa8d3" y="141.075886065"/>
      </g>
     </g>
     <g id="line2d_77">
      <g>
       <use style="stroke:#000000;stroke-width:0.5;" x="541.00125" xlink:href="#m5070b12571" y="141.075886065"/>
      </g>
     </g>
    </g>
    <g id="ytick_31">
     <g id="line2d_78">
      <g>
       <use style="stroke:#000000;stroke-width:0.5;" x="75.8949675293" xlink:href="#m64555fa8d3" y="128.347397129"/>
      </g>
     </g>
     <g id="line2d_79">
      <g>
       <use style="stroke:#000000;stroke-width:0.5;" x="541.00125" xlink:href="#m5070b12571" y="128.347397129"/>
      </g>
     </g>
    </g>
    <g id="ytick_32">
     <g id="line2d_80">
      <g>
       <use style="stroke:#000000;stroke-width:0.5;" x="75.8949675293" xlink:href="#m64555fa8d3" y="120.901708411"/>
      </g>
     </g>
     <g id="line2d_81">
      <g>
       <use style="stroke:#000000;stroke-width:0.5;" x="541.00125" xlink:href="#m5070b12571" y="120.901708411"/>
      </g>
     </g>
    </g>
    <g id="ytick_33">
     <g id="line2d_82">
      <g>
       <use style="stroke:#000000;stroke-width:0.5;" x="75.8949675293" xlink:href="#m64555fa8d3" y="115.618908194"/>
      </g>
     </g>
     <g id="line2d_83">
      <g>
       <use style="stroke:#000000;stroke-width:0.5;" x="541.00125" xlink:href="#m5070b12571" y="115.618908194"/>
      </g>
     </g>
    </g>
    <g id="ytick_34">
     <g id="line2d_84">
      <g>
       <use style="stroke:#000000;stroke-width:0.5;" x="75.8949675293" xlink:href="#m64555fa8d3" y="98.7927610646"/>
      </g>
     </g>
     <g id="line2d_85">
      <g>
       <use style="stroke:#000000;stroke-width:0.5;" x="541.00125" xlink:href="#m5070b12571" y="98.7927610646"/>
      </g>
     </g>
    </g>
    <g id="ytick_35">
     <g id="line2d_86">
      <g>
       <use style="stroke:#000000;stroke-width:0.5;" x="75.8949675293" xlink:href="#m64555fa8d3" y="86.0642721292"/>
      </g>
     </g>
     <g id="line2d_87">
      <g>
       <use style="stroke:#000000;stroke-width:0.5;" x="541.00125" xlink:href="#m5070b12571" y="86.0642721292"/>
      </g>
     </g>
    </g>
    <g id="ytick_36">
     <g id="line2d_88">
      <g>
       <use style="stroke:#000000;stroke-width:0.5;" x="75.8949675293" xlink:href="#m64555fa8d3" y="78.6185834111"/>
      </g>
     </g>
     <g id="line2d_89">
      <g>
       <use style="stroke:#000000;stroke-width:0.5;" x="541.00125" xlink:href="#m5070b12571" y="78.6185834111"/>
      </g>
     </g>
    </g>
    <g id="ytick_37">
     <g id="line2d_90">
      <g>
       <use style="stroke:#000000;stroke-width:0.5;" x="75.8949675293" xlink:href="#m64555fa8d3" y="73.3357831938"/>
      </g>
     </g>
     <g id="line2d_91">
      <g>
       <use style="stroke:#000000;stroke-width:0.5;" x="541.00125" xlink:href="#m5070b12571" y="73.3357831938"/>
      </g>
     </g>
    </g>
    <g id="ytick_38">
     <g id="line2d_92">
      <g>
       <use style="stroke:#000000;stroke-width:0.5;" x="75.8949675293" xlink:href="#m64555fa8d3" y="56.5096360646"/>
      </g>
     </g>
     <g id="line2d_93">
      <g>
       <use style="stroke:#000000;stroke-width:0.5;" x="541.00125" xlink:href="#m5070b12571" y="56.5096360646"/>
      </g>
     </g>
    </g>
    <g id="ytick_39">
     <g id="line2d_94">
      <g>
       <use style="stroke:#000000;stroke-width:0.5;" x="75.8949675293" xlink:href="#m64555fa8d3" y="43.7811471292"/>
      </g>
     </g>
     <g id="line2d_95">
      <g>
       <use style="stroke:#000000;stroke-width:0.5;" x="541.00125" xlink:href="#m5070b12571" y="43.7811471292"/>
      </g>
     </g>
    </g>
    <g id="ytick_40">
     <g id="line2d_96">
      <g>
       <use style="stroke:#000000;stroke-width:0.5;" x="75.8949675293" xlink:href="#m64555fa8d3" y="36.3354584111"/>
      </g>
     </g>
     <g id="line2d_97">
      <g>
       <use style="stroke:#000000;stroke-width:0.5;" x="541.00125" xlink:href="#m5070b12571" y="36.3354584111"/>
      </g>
     </g>
    </g>
    <g id="ytick_41">
     <g id="line2d_98">
      <g>
       <use style="stroke:#000000;stroke-width:0.5;" x="75.8949675293" xlink:href="#m64555fa8d3" y="31.0526581938"/>
      </g>
     </g>
     <g id="line2d_99">
      <g>
       <use style="stroke:#000000;stroke-width:0.5;" x="541.00125" xlink:href="#m5070b12571" y="31.0526581938"/>
      </g>
     </g>
    </g>
    <g id="text_17">
     <!-- Intensity (arb.u.) -->
     <defs>
      <path d="M 34.28125 27.484375 
Q 23.390625 27.484375 19.1875 25 
Q 14.984375 22.515625 14.984375 16.5 
Q 14.984375 11.71875 18.140625 8.90625 
Q 21.296875 6.109375 26.703125 6.109375 
Q 34.1875 6.109375 38.703125 11.40625 
Q 43.21875 16.703125 43.21875 25.484375 
L 43.21875 27.484375 
z
M 52.203125 31.203125 
L 52.203125 0 
L 43.21875 0 
L 43.21875 8.296875 
Q 40.140625 3.328125 35.546875 0.953125 
Q 30.953125 -1.421875 24.3125 -1.421875 
Q 15.921875 -1.421875 10.953125 3.296875 
Q 6 8.015625 6 15.921875 
Q 6 25.140625 12.171875 29.828125 
Q 18.359375 34.515625 30.609375 34.515625 
L 43.21875 34.515625 
L 43.21875 35.40625 
Q 43.21875 41.609375 39.140625 45 
Q 35.0625 48.390625 27.6875 48.390625 
Q 23 48.390625 18.546875 47.265625 
Q 14.109375 46.140625 10.015625 43.890625 
L 10.015625 52.203125 
Q 14.9375 54.109375 19.578125 55.046875 
Q 24.21875 56 28.609375 56 
Q 40.484375 56 46.34375 49.84375 
Q 52.203125 43.703125 52.203125 31.203125 
" id="BitstreamVeraSans-Roman-61"/>
      <path d="M 48.6875 27.296875 
Q 48.6875 37.203125 44.609375 42.84375 
Q 40.53125 48.484375 33.40625 48.484375 
Q 26.265625 48.484375 22.1875 42.84375 
Q 18.109375 37.203125 18.109375 27.296875 
Q 18.109375 17.390625 22.1875 11.75 
Q 26.265625 6.109375 33.40625 6.109375 
Q 40.53125 6.109375 44.609375 11.75 
Q 48.6875 17.390625 48.6875 27.296875 
M 18.109375 46.390625 
Q 20.953125 51.265625 25.265625 53.625 
Q 29.59375 56 35.59375 56 
Q 45.5625 56 51.78125 48.09375 
Q 58.015625 40.1875 58.015625 27.296875 
Q 58.015625 14.40625 51.78125 6.484375 
Q 45.5625 -1.421875 35.59375 -1.421875 
Q 29.59375 -1.421875 25.265625 0.953125 
Q 20.953125 3.328125 18.109375 8.203125 
L 18.109375 0 
L 9.078125 0 
L 9.078125 75.984375 
L 18.109375 75.984375 
z
" id="BitstreamVeraSans-Roman-62"/>
      <path d="M 8.5 21.578125 
L 8.5 54.6875 
L 17.484375 54.6875 
L 17.484375 21.921875 
Q 17.484375 14.15625 20.5 10.265625 
Q 23.53125 6.390625 29.59375 6.390625 
Q 36.859375 6.390625 41.078125 11.03125 
Q 45.3125 15.671875 45.3125 23.6875 
L 45.3125 54.6875 
L 54.296875 54.6875 
L 54.296875 0 
L 45.3125 0 
L 45.3125 8.40625 
Q 42.046875 3.421875 37.71875 1 
Q 33.40625 -1.421875 27.6875 -1.421875 
Q 18.265625 -1.421875 13.375 4.4375 
Q 8.5 10.296875 8.5 21.578125 
" id="BitstreamVeraSans-Roman-75"/>
      <path d="M 41.109375 46.296875 
Q 39.59375 47.171875 37.8125 47.578125 
Q 36.03125 48 33.890625 48 
Q 26.265625 48 22.1875 43.046875 
Q 18.109375 38.09375 18.109375 28.8125 
L 18.109375 0 
L 9.078125 0 
L 9.078125 54.6875 
L 18.109375 54.6875 
L 18.109375 46.1875 
Q 20.953125 51.171875 25.484375 53.578125 
Q 30.03125 56 36.53125 56 
Q 37.453125 56 38.578125 55.875 
Q 39.703125 55.765625 41.0625 55.515625 
z
" id="BitstreamVeraSans-Roman-72"/>
      <path d="M 9.8125 72.90625 
L 19.671875 72.90625 
L 19.671875 0 
L 9.8125 0 
z
" id="BitstreamVeraSans-Roman-49"/>
      <path d="M 44.28125 53.078125 
L 44.28125 44.578125 
Q 40.484375 46.53125 36.375 47.5 
Q 32.28125 48.484375 27.875 48.484375 
Q 21.1875 48.484375 17.84375 46.4375 
Q 14.5 44.390625 14.5 40.28125 
Q 14.5 37.15625 16.890625 35.375 
Q 19.28125 33.59375 26.515625 31.984375 
L 29.59375 31.296875 
Q 39.15625 29.25 43.1875 25.515625 
Q 47.21875 21.78125 47.21875 15.09375 
Q 47.21875 7.46875 41.1875 3.015625 
Q 35.15625 -1.421875 24.609375 -1.421875 
Q 20.21875 -1.421875 15.453125 -0.5625 
Q 10.6875 0.296875 5.421875 2 
L 5.421875 11.28125 
Q 10.40625 8.6875 15.234375 7.390625 
Q 20.0625 6.109375 24.8125 6.109375 
Q 31.15625 6.109375 34.5625 8.28125 
Q 37.984375 10.453125 37.984375 14.40625 
Q 37.984375 18.0625 35.515625 20.015625 
Q 33.0625 21.96875 24.703125 23.78125 
L 21.578125 24.515625 
Q 13.234375 26.265625 9.515625 29.90625 
Q 5.8125 33.546875 5.8125 39.890625 
Q 5.8125 47.609375 11.28125 51.796875 
Q 16.75 56 26.8125 56 
Q 31.78125 56 36.171875 55.265625 
Q 40.578125 54.546875 44.28125 53.078125 
" id="BitstreamVeraSans-Roman-73"/>
      <path d="M 32.171875 -5.078125 
Q 28.375 -14.84375 24.75 -17.8125 
Q 21.140625 -20.796875 15.09375 -20.796875 
L 7.90625 -20.796875 
L 7.90625 -13.28125 
L 13.1875 -13.28125 
Q 16.890625 -13.28125 18.9375 -11.515625 
Q 21 -9.765625 23.484375 -3.21875 
L 25.09375 0.875 
L 2.984375 54.6875 
L 12.5 54.6875 
L 29.59375 11.921875 
L 46.6875 54.6875 
L 56.203125 54.6875 
z
" id="BitstreamVeraSans-Roman-79"/>
      <path d="M 54.890625 33.015625 
L 54.890625 0 
L 45.90625 0 
L 45.90625 32.71875 
Q 45.90625 40.484375 42.875 44.328125 
Q 39.84375 48.1875 33.796875 48.1875 
Q 26.515625 48.1875 22.3125 43.546875 
Q 18.109375 38.921875 18.109375 30.90625 
L 18.109375 0 
L 9.078125 0 
L 9.078125 54.6875 
L 18.109375 54.6875 
L 18.109375 46.1875 
Q 21.34375 51.125 25.703125 53.5625 
Q 30.078125 56 35.796875 56 
Q 45.21875 56 50.046875 50.171875 
Q 54.890625 44.34375 54.890625 33.015625 
" id="BitstreamVeraSans-Roman-6e"/>
      <path d="M 18.3125 70.21875 
L 18.3125 54.6875 
L 36.8125 54.6875 
L 36.8125 47.703125 
L 18.3125 47.703125 
L 18.3125 18.015625 
Q 18.3125 11.328125 20.140625 9.421875 
Q 21.96875 7.515625 27.59375 7.515625 
L 36.8125 7.515625 
L 36.8125 0 
L 27.59375 0 
Q 17.1875 0 13.234375 3.875 
Q 9.28125 7.765625 9.28125 18.015625 
L 9.28125 47.703125 
L 2.6875 47.703125 
L 2.6875 54.6875 
L 9.28125 54.6875 
L 9.28125 70.21875 
z
" id="BitstreamVeraSans-Roman-74"/>
      <path d="M 9.421875 54.6875 
L 18.40625 54.6875 
L 18.40625 0 
L 9.421875 0 
z
M 9.421875 75.984375 
L 18.40625 75.984375 
L 18.40625 64.59375 
L 9.421875 64.59375 
z
" id="BitstreamVeraSans-Roman-69"/>
      <path d="M 56.203125 29.59375 
L 56.203125 25.203125 
L 14.890625 25.203125 
Q 15.484375 15.921875 20.484375 11.0625 
Q 25.484375 6.203125 34.421875 6.203125 
Q 39.59375 6.203125 44.453125 7.46875 
Q 49.3125 8.734375 54.109375 11.28125 
L 54.109375 2.78125 
Q 49.265625 0.734375 44.1875 -0.34375 
Q 39.109375 -1.421875 33.890625 -1.421875 
Q 20.796875 -1.421875 13.15625 6.1875 
Q 5.515625 13.8125 5.515625 26.8125 
Q 5.515625 40.234375 12.765625 48.109375 
Q 20.015625 56 32.328125 56 
Q 43.359375 56 49.78125 48.890625 
Q 56.203125 41.796875 56.203125 29.59375 
M 47.21875 32.234375 
Q 47.125 39.59375 43.09375 43.984375 
Q 39.0625 48.390625 32.421875 48.390625 
Q 24.90625 48.390625 20.390625 44.140625 
Q 15.875 39.890625 15.1875 32.171875 
z
" id="BitstreamVeraSans-Roman-65"/>
     </defs>
     <g transform="translate(29.8074675293 263.1175)rotate(-90.0)scale(0.16 -0.16)">
      <use xlink:href="#BitstreamVeraSans-Roman-49"/>
      <use x="29.4921875" xlink:href="#BitstreamVeraSans-Roman-6e"/>
      <use x="92.87109375" xlink:href="#BitstreamVeraSans-Roman-74"/>
      <use x="132.080078125" xlink:href="#BitstreamVeraSans-Roman-65"/>
      <use x="193.603515625" xlink:href="#BitstreamVeraSans-Roman-6e"/>
      <use x="256.982421875" xlink:href="#BitstreamVeraSans-Roman-73"/>
      <use x="309.08203125" xlink:href="#BitstreamVeraSans-Roman-69"/>
      <use x="336.865234375" xlink:href="#BitstreamVeraSans-Roman-74"/>
      <use x="376.07421875" xlink:href="#BitstreamVeraSans-Roman-79"/>
      <use x="435.25390625" xlink:href="#BitstreamVeraSans-Roman-20"/>
      <use x="467.041015625" xlink:href="#BitstreamVeraSans-Roman-28"/>
      <use x="506.0546875" xlink:href="#BitstreamVeraSans-Roman-61"/>
      <use x="567.333984375" xlink:href="#BitstreamVeraSans-Roman-72"/>
      <use x="608.447265625" xlink:href="#BitstreamVeraSans-Roman-62"/>
      <use x="671.923828125" xlink:href="#BitstreamVeraSans-Roman-2e"/>
      <use x="703.7109375" xlink:href="#BitstreamVeraSans-Roman-75"/>
      <use x="767.08984375" xlink:href="#BitstreamVeraSans-Roman-2e"/>
      <use x="798.876953125" xlink:href="#BitstreamVeraSans-Roman-29"/>
     </g>
    </g>
   </g>
   <g id="legend_1">
    <g id="patch_7">
     <path d="M 354.38426 135.432425 
L 534.33725 135.432425 
L 534.33725 33.619 
L 354.38426 33.619 
z
" style="fill:#ffffff;stroke:#000000;stroke-linejoin:miter;"/>
    </g>
    <g id="line2d_100">
     <path d="M 363.71386 44.412597 
L 382.37306 44.412597 
" style="fill:none;stroke:#0000ff;stroke-linecap:square;"/>
    </g>
    <g id="line2d_101"/>
    <g id="text_18">
     <!-- kinematical -->
     <defs>
      <path d="M 9.078125 75.984375 
L 18.109375 75.984375 
L 18.109375 31.109375 
L 44.921875 54.6875 
L 56.390625 54.6875 
L 27.390625 29.109375 
L 57.625 0 
L 45.90625 0 
L 18.109375 26.703125 
L 18.109375 0 
L 9.078125 0 
z
" id="BitstreamVeraSans-Roman-6b"/>
      <path d="M 9.421875 75.984375 
L 18.40625 75.984375 
L 18.40625 0 
L 9.421875 0 
z
" id="BitstreamVeraSans-Roman-6c"/>
      <path d="M 52 44.1875 
Q 55.375 50.25 60.0625 53.125 
Q 64.75 56 71.09375 56 
Q 79.640625 56 84.28125 50.015625 
Q 88.921875 44.046875 88.921875 33.015625 
L 88.921875 0 
L 79.890625 0 
L 79.890625 32.71875 
Q 79.890625 40.578125 77.09375 44.375 
Q 74.3125 48.1875 68.609375 48.1875 
Q 61.625 48.1875 57.5625 43.546875 
Q 53.515625 38.921875 53.515625 30.90625 
L 53.515625 0 
L 44.484375 0 
L 44.484375 32.71875 
Q 44.484375 40.625 41.703125 44.40625 
Q 38.921875 48.1875 33.109375 48.1875 
Q 26.21875 48.1875 22.15625 43.53125 
Q 18.109375 38.875 18.109375 30.90625 
L 18.109375 0 
L 9.078125 0 
L 9.078125 54.6875 
L 18.109375 54.6875 
L 18.109375 46.1875 
Q 21.1875 51.21875 25.484375 53.609375 
Q 29.78125 56 35.6875 56 
Q 41.65625 56 45.828125 52.96875 
Q 50 49.953125 52 44.1875 
" id="BitstreamVeraSans-Roman-6d"/>
      <path d="M 48.78125 52.59375 
L 48.78125 44.1875 
Q 44.96875 46.296875 41.140625 47.34375 
Q 37.3125 48.390625 33.40625 48.390625 
Q 24.65625 48.390625 19.8125 42.84375 
Q 14.984375 37.3125 14.984375 27.296875 
Q 14.984375 17.28125 19.8125 11.734375 
Q 24.65625 6.203125 33.40625 6.203125 
Q 37.3125 6.203125 41.140625 7.25 
Q 44.96875 8.296875 48.78125 10.40625 
L 48.78125 2.09375 
Q 45.015625 0.34375 40.984375 -0.53125 
Q 36.96875 -1.421875 32.421875 -1.421875 
Q 20.0625 -1.421875 12.78125 6.34375 
Q 5.515625 14.109375 5.515625 27.296875 
Q 5.515625 40.671875 12.859375 48.328125 
Q 20.21875 56 33.015625 56 
Q 37.15625 56 41.109375 55.140625 
Q 45.0625 54.296875 48.78125 52.59375 
" id="BitstreamVeraSans-Roman-63"/>
     </defs>
     <g transform="translate(397.03386 49.0773975)scale(0.13327999999999998 -0.13327999999999998)">
      <use xlink:href="#BitstreamVeraSans-Roman-6b"/>
      <use x="57.91015625" xlink:href="#BitstreamVeraSans-Roman-69"/>
      <use x="85.693359375" xlink:href="#BitstreamVeraSans-Roman-6e"/>
      <use x="149.072265625" xlink:href="#BitstreamVeraSans-Roman-65"/>
      <use x="210.595703125" xlink:href="#BitstreamVeraSans-Roman-6d"/>
      <use x="308.0078125" xlink:href="#BitstreamVeraSans-Roman-61"/>
      <use x="369.287109375" xlink:href="#BitstreamVeraSans-Roman-74"/>
      <use x="408.49609375" xlink:href="#BitstreamVeraSans-Roman-69"/>
      <use x="436.279296875" xlink:href="#BitstreamVeraSans-Roman-63"/>
      <use x="491.259765625" xlink:href="#BitstreamVeraSans-Roman-61"/>
      <use x="552.5390625" xlink:href="#BitstreamVeraSans-Roman-6c"/>
     </g>
    </g>
    <g id="line2d_102">
     <path d="M 363.71386 63.975602 
L 382.37306 63.975602 
" style="fill:none;stroke:#008000;stroke-linecap:square;"/>
    </g>
    <g id="line2d_103"/>
    <g id="text_19">
     <!-- multibeam -->
     <g transform="translate(397.03386 68.6404025)scale(0.13327999999999998 -0.13327999999999998)">
      <use xlink:href="#BitstreamVeraSans-Roman-6d"/>
      <use x="97.412109375" xlink:href="#BitstreamVeraSans-Roman-75"/>
      <use x="160.791015625" xlink:href="#BitstreamVeraSans-Roman-6c"/>
      <use x="188.57421875" xlink:href="#BitstreamVeraSans-Roman-74"/>
      <use x="227.783203125" xlink:href="#BitstreamVeraSans-Roman-69"/>
      <use x="255.56640625" xlink:href="#BitstreamVeraSans-Roman-62"/>
      <use x="319.04296875" xlink:href="#BitstreamVeraSans-Roman-65"/>
      <use x="380.56640625" xlink:href="#BitstreamVeraSans-Roman-61"/>
      <use x="441.845703125" xlink:href="#BitstreamVeraSans-Roman-6d"/>
     </g>
    </g>
    <g id="line2d_104">
     <path d="M 363.71386 83.538607 
L 382.37306 83.538607 
" style="fill:none;stroke:#ff0000;stroke-linecap:square;"/>
    </g>
    <g id="line2d_105"/>
    <g id="text_20">
     <!-- simpl. dynamical(S) -->
     <defs>
      <path d="M 53.515625 70.515625 
L 53.515625 60.890625 
Q 47.90625 63.578125 42.921875 64.890625 
Q 37.9375 66.21875 33.296875 66.21875 
Q 25.25 66.21875 20.875 63.09375 
Q 16.5 59.96875 16.5 54.203125 
Q 16.5 49.359375 19.40625 46.890625 
Q 22.3125 44.4375 30.421875 42.921875 
L 36.375 41.703125 
Q 47.40625 39.59375 52.65625 34.296875 
Q 57.90625 29 57.90625 20.125 
Q 57.90625 9.515625 50.796875 4.046875 
Q 43.703125 -1.421875 29.984375 -1.421875 
Q 24.8125 -1.421875 18.96875 -0.25 
Q 13.140625 0.921875 6.890625 3.21875 
L 6.890625 13.375 
Q 12.890625 10.015625 18.65625 8.296875 
Q 24.421875 6.59375 29.984375 6.59375 
Q 38.421875 6.59375 43.015625 9.90625 
Q 47.609375 13.234375 47.609375 19.390625 
Q 47.609375 24.75 44.3125 27.78125 
Q 41.015625 30.8125 33.5 32.328125 
L 27.484375 33.5 
Q 16.453125 35.6875 11.515625 40.375 
Q 6.59375 45.0625 6.59375 53.421875 
Q 6.59375 63.09375 13.40625 68.65625 
Q 20.21875 74.21875 32.171875 74.21875 
Q 37.3125 74.21875 42.625 73.28125 
Q 47.953125 72.359375 53.515625 70.515625 
" id="BitstreamVeraSans-Roman-53"/>
      <path d="M 45.40625 46.390625 
L 45.40625 75.984375 
L 54.390625 75.984375 
L 54.390625 0 
L 45.40625 0 
L 45.40625 8.203125 
Q 42.578125 3.328125 38.25 0.953125 
Q 33.9375 -1.421875 27.875 -1.421875 
Q 17.96875 -1.421875 11.734375 6.484375 
Q 5.515625 14.40625 5.515625 27.296875 
Q 5.515625 40.1875 11.734375 48.09375 
Q 17.96875 56 27.875 56 
Q 33.9375 56 38.25 53.625 
Q 42.578125 51.265625 45.40625 46.390625 
M 14.796875 27.296875 
Q 14.796875 17.390625 18.875 11.75 
Q 22.953125 6.109375 30.078125 6.109375 
Q 37.203125 6.109375 41.296875 11.75 
Q 45.40625 17.390625 45.40625 27.296875 
Q 45.40625 37.203125 41.296875 42.84375 
Q 37.203125 48.484375 30.078125 48.484375 
Q 22.953125 48.484375 18.875 42.84375 
Q 14.796875 37.203125 14.796875 27.296875 
" id="BitstreamVeraSans-Roman-64"/>
      <path d="M 18.109375 8.203125 
L 18.109375 -20.796875 
L 9.078125 -20.796875 
L 9.078125 54.6875 
L 18.109375 54.6875 
L 18.109375 46.390625 
Q 20.953125 51.265625 25.265625 53.625 
Q 29.59375 56 35.59375 56 
Q 45.5625 56 51.78125 48.09375 
Q 58.015625 40.1875 58.015625 27.296875 
Q 58.015625 14.40625 51.78125 6.484375 
Q 45.5625 -1.421875 35.59375 -1.421875 
Q 29.59375 -1.421875 25.265625 0.953125 
Q 20.953125 3.328125 18.109375 8.203125 
M 48.6875 27.296875 
Q 48.6875 37.203125 44.609375 42.84375 
Q 40.53125 48.484375 33.40625 48.484375 
Q 26.265625 48.484375 22.1875 42.84375 
Q 18.109375 37.203125 18.109375 27.296875 
Q 18.109375 17.390625 22.1875 11.75 
Q 26.265625 6.109375 33.40625 6.109375 
Q 40.53125 6.109375 44.609375 11.75 
Q 48.6875 17.390625 48.6875 27.296875 
" id="BitstreamVeraSans-Roman-70"/>
     </defs>
     <g transform="translate(397.03386 88.2034075)scale(0.13327999999999998 -0.13327999999999998)">
      <use xlink:href="#BitstreamVeraSans-Roman-73"/>
      <use x="52.099609375" xlink:href="#BitstreamVeraSans-Roman-69"/>
      <use x="79.8828125" xlink:href="#BitstreamVeraSans-Roman-6d"/>
      <use x="177.294921875" xlink:href="#BitstreamVeraSans-Roman-70"/>
      <use x="240.771484375" xlink:href="#BitstreamVeraSans-Roman-6c"/>
      <use x="268.5546875" xlink:href="#BitstreamVeraSans-Roman-2e"/>
      <use x="300.341796875" xlink:href="#BitstreamVeraSans-Roman-20"/>
      <use x="332.12890625" xlink:href="#BitstreamVeraSans-Roman-64"/>
      <use x="395.60546875" xlink:href="#BitstreamVeraSans-Roman-79"/>
      <use x="454.78515625" xlink:href="#BitstreamVeraSans-Roman-6e"/>
      <use x="518.1640625" xlink:href="#BitstreamVeraSans-Roman-61"/>
      <use x="579.443359375" xlink:href="#BitstreamVeraSans-Roman-6d"/>
      <use x="676.85546875" xlink:href="#BitstreamVeraSans-Roman-69"/>
      <use x="704.638671875" xlink:href="#BitstreamVeraSans-Roman-63"/>
      <use x="759.619140625" xlink:href="#BitstreamVeraSans-Roman-61"/>
      <use x="820.8984375" xlink:href="#BitstreamVeraSans-Roman-6c"/>
      <use x="848.681640625" xlink:href="#BitstreamVeraSans-Roman-28"/>
      <use x="887.6953125" xlink:href="#BitstreamVeraSans-Roman-53"/>
      <use x="951.171875" xlink:href="#BitstreamVeraSans-Roman-29"/>
     </g>
    </g>
    <g id="line2d_106">
     <path d="M 363.71386 103.101612 
L 382.37306 103.101612 
" style="fill:none;stroke:#00bfbf;stroke-linecap:square;"/>
    </g>
    <g id="line2d_107"/>
    <g id="text_21">
     <!-- simpl. dynamical(L) -->
     <defs>
      <path d="M 9.8125 72.90625 
L 19.671875 72.90625 
L 19.671875 8.296875 
L 55.171875 8.296875 
L 55.171875 0 
L 9.8125 0 
z
" id="BitstreamVeraSans-Roman-4c"/>
     </defs>
     <g transform="translate(397.03386 107.7664125)scale(0.13327999999999998 -0.13327999999999998)">
      <use xlink:href="#BitstreamVeraSans-Roman-73"/>
      <use x="52.099609375" xlink:href="#BitstreamVeraSans-Roman-69"/>
      <use x="79.8828125" xlink:href="#BitstreamVeraSans-Roman-6d"/>
      <use x="177.294921875" xlink:href="#BitstreamVeraSans-Roman-70"/>
      <use x="240.771484375" xlink:href="#BitstreamVeraSans-Roman-6c"/>
      <use x="268.5546875" xlink:href="#BitstreamVeraSans-Roman-2e"/>
      <use x="300.341796875" xlink:href="#BitstreamVeraSans-Roman-20"/>
      <use x="332.12890625" xlink:href="#BitstreamVeraSans-Roman-64"/>
      <use x="395.60546875" xlink:href="#BitstreamVeraSans-Roman-79"/>
      <use x="454.78515625" xlink:href="#BitstreamVeraSans-Roman-6e"/>
      <use x="518.1640625" xlink:href="#BitstreamVeraSans-Roman-61"/>
      <use x="579.443359375" xlink:href="#BitstreamVeraSans-Roman-6d"/>
      <use x="676.85546875" xlink:href="#BitstreamVeraSans-Roman-69"/>
      <use x="704.638671875" xlink:href="#BitstreamVeraSans-Roman-63"/>
      <use x="759.619140625" xlink:href="#BitstreamVeraSans-Roman-61"/>
      <use x="820.8984375" xlink:href="#BitstreamVeraSans-Roman-6c"/>
      <use x="848.681640625" xlink:href="#BitstreamVeraSans-Roman-28"/>
      <use x="887.6953125" xlink:href="#BitstreamVeraSans-Roman-4c"/>
      <use x="943.408203125" xlink:href="#BitstreamVeraSans-Roman-29"/>
     </g>
    </g>
    <g id="line2d_108">
     <path d="M 363.71386 122.664617 
L 382.37306 122.664617 
" style="fill:none;stroke:#bf00bf;stroke-linecap:square;"/>
    </g>
    <g id="line2d_109"/>
    <g id="text_22">
     <!-- full dynamical -->
     <defs>
      <path d="M 37.109375 75.984375 
L 37.109375 68.5 
L 28.515625 68.5 
Q 23.6875 68.5 21.796875 66.546875 
Q 19.921875 64.59375 19.921875 59.515625 
L 19.921875 54.6875 
L 34.71875 54.6875 
L 34.71875 47.703125 
L 19.921875 47.703125 
L 19.921875 0 
L 10.890625 0 
L 10.890625 47.703125 
L 2.296875 47.703125 
L 2.296875 54.6875 
L 10.890625 54.6875 
L 10.890625 58.5 
Q 10.890625 67.625 15.140625 71.796875 
Q 19.390625 75.984375 28.609375 75.984375 
z
" id="BitstreamVeraSans-Roman-66"/>
     </defs>
     <g transform="translate(397.03386 127.3294175)scale(0.13327999999999998 -0.13327999999999998)">
      <use xlink:href="#BitstreamVeraSans-Roman-66"/>
      <use x="35.205078125" xlink:href="#BitstreamVeraSans-Roman-75"/>
      <use x="98.583984375" xlink:href="#BitstreamVeraSans-Roman-6c"/>
      <use x="126.3671875" xlink:href="#BitstreamVeraSans-Roman-6c"/>
      <use x="154.150390625" xlink:href="#BitstreamVeraSans-Roman-20"/>
      <use x="185.9375" xlink:href="#BitstreamVeraSans-Roman-64"/>
      <use x="249.4140625" xlink:href="#BitstreamVeraSans-Roman-79"/>
      <use x="308.59375" xlink:href="#BitstreamVeraSans-Roman-6e"/>
      <use x="371.97265625" xlink:href="#BitstreamVeraSans-Roman-61"/>
      <use x="433.251953125" xlink:href="#BitstreamVeraSans-Roman-6d"/>
      <use x="530.6640625" xlink:href="#BitstreamVeraSans-Roman-69"/>
      <use x="558.447265625" xlink:href="#BitstreamVeraSans-Roman-63"/>
      <use x="613.427734375" xlink:href="#BitstreamVeraSans-Roman-61"/>
      <use x="674.70703125" xlink:href="#BitstreamVeraSans-Roman-6c"/>
     </g>
    </g>
   </g>
  </g>
 </g>
 <defs>
  <clipPath id="p57efb8969c">
   <rect height="338.265" width="465.106282471" x="75.8949675293" y="26.955"/>
  </clipPath>
 </defs>
</svg>
